<svg xmlns="http://www.w3.org/2000/svg" style="display: none;">
  <defs>
    <filter id="ombra">
      <feDropShadow dx="10" dy="10" stdDeviation="2" flood-color="rgba(0, 0, 0, 0.5)" flood-opacity="1"/>
    </filter>

    <symbol id="hacked-vertical">
      <g transform="matrix(0.46, 0, 0, 0.44, -790, -200)" filter="url(#ombra)">
        <g id="hacked-vertical-color" fill-opacity="1">
          <g transform="translate(1739,822.78301)">
              <path d="m 244.89062,-75.296875 v 1.609375 h 25.09375 v 3.21875 h -1.28125 v 4.828125 h -66.60937 v 1.609375 h 11.57812 v 4.828125 h 35.40625 V -56 h -18.34375 v 6.4375 h -0.96875 v 1.609375 H 208.53125 V -43.125 h 31.53125 v 1.609375 h 1.28125 v 4.828125 h 3.21875 v 6.4375 h -62.10938 v 4.828125 h 65.65625 v 3.21875 H 226.21875 V -17.375 h -2.89063 v 3.21875 h 7.40625 v 3.21875 h -4.82812 v 3.21875 h 11.26562 L 236.20312,-4.5 h 15.125 c -0.42968,0.636719 -0.91406,1.226562 -1.45312,1.765625 -0.53125,0.53125 -1.12109,1.015625 -1.76563,1.453125 H 255.5 C 254.42578,-0.425781 252.92578,0 251,0 h -63.07813 c -1.92968,0 -3.42968,-0.425781 -4.5,-1.28125 h -7.40625 C 174.51562,-1.925781 173.44531,-3 172.8125,-4.5 h -15.125 l -0.96875,-3.21875 h -11.26563 v -3.21875 h 4.82813 v -3.21875 H 142.875 V -17.375 h 2.90625 v -4.828125 h 21.875 v -3.21875 h -58.25 v 3.21875 H 82.703125 V -17.375 h 18.343755 v 3.21875 h -4.500005 v 3.21875 h 16.718755 v 3.21875 H 95.25 L 94.28125,-4.5 h 7.07813 c -0.85547,1.5 -1.820318,2.574219 -2.89063,3.21875 H 90.75 C 89.675781,-0.425781 88.171875,0 86.234375,0 h -63.0625 C 21.023438,0 19.414062,-0.425781 18.34375,-1.28125 H 26.0625 C 24.988281,-1.925781 24.023438,-3 23.171875,-4.5 h -7.40625 c -0.648437,-1.070312 -0.96875,-2.144531 -0.96875,-3.21875 h 18.03125 V -10.9375 H 16.09375 v -3.21875 h 4.5 V -17.375 H 2.25 v -4.828125 h 26.71875 v -3.21875 h 15.4375 V -30.25 h -49.5625 v -6.4375 H 13.1875 v -4.828125 h 12.875 V -43.125 h -9 v -4.828125 H 1.9375 V -49.5625 H 5.15625 V -56 h 10.296875 v -3.203125 h 4.8125 v -4.828125 h -23.15625 v -1.609375 h 59.53125 V -70.46875 H -16.09375 v -3.21875 h 68.546875 v -1.609375 H 18.984375 V -80.125 h 19.3125 v -1.609375 h 3.859375 v -1.609375 h -1.609375 v -6.4375 H 8.6875 v -4.828125 h 10.625 v -1.609375 h -2.90625 v -4.82813 h 1.296875 v -1.60937 h 0.3125 v -3.21875 h 0.328125 v -1.60938 h -4.1875 v -1.60937 H 1.609375 v -4.82813 h 4.1875 V -118.75 h -6.4375 v -4.8125 h 16.09375 V -130 H 11.90625 v -3.21875 h -23.484375 v -1.60937 H 26.0625 v -3.21875 h 9.015625 v -1.60938 H -51.8125 v -1.60937 h 51.171875 v -1.60938 h 18.34375 v -4.82812 H -15.125 v -6.4375 h -9.015625 v -4.82813 h 38.625 v -6.4375 h 3.21875 v -4.82812 h 20.59375 v -1.60938 H 20.59375 v -6.4375 H 35.078125 V -181.5 h -17.375 v -1.60937 h -6.125 v -3.21875 H 2.25 v -3.20313 H -9.015625 v -6.4375 h 20.28125 v -4.82812 h 12.21875 v -4.82813 h -5.78125 v -3.21875 H 9.65625 v -1.60937 h 4.5 v -3.21875 H 13.1875 v -2.89063 c 0,-1.50781 0.320312,-2.69141 0.96875,-3.54687 H 34.75 c 0.21875,-0.64454 0.539062,-1.23438 0.96875,-1.76563 0.425781,-0.53906 0.851562,-1.02344 1.28125,-1.45312 h 49.5625 c 1.289062,-1.28907 3.113281,-1.9375 5.46875,-1.9375 h 123.57812 c 2.14454,0 3.96875,0.64843 5.46875,1.9375 H 270.625 c 0.4375,0.42968 0.92187,0.91406 1.45312,1.45312 0.53907,0.53125 0.91407,1.12109 1.125,1.76563 H 231.6875 c 0.4375,1.29296 0.65625,2.47656 0.65625,3.54687 v 2.89063 h 1.60937 v 3.21875 h 4.5 v 1.60937 h -8.6875 v 3.21875 h -3.85937 v 4.82813 h 12.54687 v 4.82812 h -30.25 v 6.4375 h 34.75 v 3.20313 h -25.09375 v 3.21875 h 10.29688 V -181.5 H 223 v 3.21875 h 24.14062 v 6.4375 H 211.75 v 1.60938 h 27.34375 v 4.82812 h -4.82813 v 6.4375 h -25.73437 v 4.82813 h -10.625 v 6.4375 h 32.82812 v 4.82812 h -18.34375 v 1.60938 h -51.17187 v 1.60937 h 86.89062 v 1.60938 h -9.01562 v 3.21875 H 201.4375 v 1.60937 h 23.5 V -130 h 3.53125 v 6.4375 h -16.07813 v 4.8125 h 6.4375 v 4.82812 h -4.1875 v 4.82813 h 12.54688 v 1.60937 h 4.1875 v 1.60938 h -0.32813 v 3.21875 h -0.3125 v 1.60937 h -1.29687 v 4.82813 h 2.90625 v 1.609375 h -10.625 v 4.828125 h 31.85937 v 6.4375 h 1.60938 v 1.609375 h -3.85938 V -80.125 h -19.3125 v 4.828125 z M 56.3125,-158.96875 v 4.82813 h 9.015625 v 5.15625 h 52.125005 v -5.15625 h 10.62499 v -4.82813 h 25.73438 v -6.4375 h 4.82812 v -4.82812 h -27.34375 v -1.60938 h 35.39063 v -6.4375 h -24.125 V -181.5 h 5.14062 v -1.60937 h -10.29687 v -3.21875 H 162.5 v -3.20313 h -34.75 v -6.4375 H 158 v -4.82812 h -12.54688 v -4.82813 h 3.85938 v -3.21875 H 158 v -1.60937 h -4.5 v -3.21875 h -1.60938 v -2.89063 c 0,-1.07031 0.21094,-2.25391 0.64063,-3.54687 h 41.51562 c 0.42579,-0.64454 0.85157,-1.23438 1.28125,-1.76563 0.42579,-0.53906 0.85938,-1.02344 1.29688,-1.45312 h -85.60937 c 1.07031,0.85546 1.92968,1.92968 2.57812,3.21875 H 93 c 0.425781,0.64843 0.640625,1.82812 0.640625,3.54687 v 2.89063 h 0.96875 v 3.21875 h -4.5 v 1.60937 h 8.03125 v 3.21875 h 5.796875 v 4.82813 H 91.71875 v 4.82812 H 71.4375 v 6.4375 h 11.265625 v 3.20313 h 9.328125 v 3.21875 h 6.109375 V -181.5 h 17.390625 v 3.21875 h -14.48437 v 6.4375 H 118.75 v 1.60938 H 98.140625 v 4.82812 H 94.9375 v 6.4375 z m 133.21875,88.5 V -73.6875 H 164.4375 v -1.609375 h -12.875 v -2.90625 h -52.125 v 2.90625 h 33.46875 V -73.6875 H 64.359375 v 3.21875 h 72.718745 v 4.828125 H 188.25 V -70.46875 Z M 168.625,-59.203125 h -35.40625 v -4.828125 h -11.57812 v -1.609375 H 77.546875 v 1.609375 h 23.171875 v 4.828125 H 95.890625 V -56 H 85.59375 v 6.4375 H 82.375 v 1.609375 H 97.5 V -43.125 h 9.01563 v 1.609375 H 93.640625 v 4.828125 h -18.34375 v 6.4375 h 88.812495 v -6.4375 h -3.20312 v -4.828125 h -1.29688 V -43.125 h -31.53125 v -4.828125 H 149.3125 V -49.5625 h 0.96875 V -56 H 168.625 Z m 0,0"/>
          </g>
          <g transform="translate(1738.7561,1063.5168)">
            <path d="m 246.8125,-17.375 2.26562,6.4375 h -5.48437 l 0.65625,1.609375 c 0,0.210937 0.0508,0.476563 0.15625,0.796875 0.10156,0.324219 0.15625,0.59375 0.15625,0.8125 h -1.92188 v 0.640625 c 0,2.574219 -0.96875,4.507813 -2.90625,5.796875 h 0.32813 C 238.98828,-0.425781 237.59375,0 235.875,0 h -59.53125 c -1.5,0 -2.73438,-0.160156 -3.70313,-0.484375 -0.96093,-0.320313 -1.97656,-0.585937 -3.04687,-0.796875 -1.71875,-0.863281 -3.01172,-1.882812 -3.875,-3.0625 -0.85547,-1.175781 -1.49609,-2.300781 -1.92188,-3.375 h 1.60938 v -0.328125 l -0.64063,-1.28125 -0.65625,-1.609375 h 5.48438 l -2.26563,-6.4375 h -6.10937 L 160.25,-20.59375 h 13.20312 l -2.25,-6.4375 h -3.875 l -0.95312,-2.25 H 97.1875 l -0.640625,2.25 h -3.875 l -2.25,6.4375 h -3.53125 L 85.59375,-17.375 h -1.921875 l -2.25,6.4375 h 0.3125 l -0.640625,1.609375 -0.328125,1.28125 -0.3125,0.328125 H 78.84375 c -0.429688,1.074219 -1.074219,2.199219 -1.9375,3.375 -0.855469,1.179688 -2.140625,2.199219 -3.859375,3.0625 h 9.65625 C 81.847656,-1.070312 80.882812,-0.804688 79.8125,-0.484375 78.738281,-0.160156 77.445312,0 75.9375,0 H 16.40625 c -1.710938,0 -2.996094,-0.425781 -3.859375,-1.28125 h -9.65625 c -2.148437,-1.507812 -3.21875,-3.441406 -3.21875,-5.796875 V -7.71875 h 1.9375 c 0,-0.644531 0.109375,-1.179688 0.328125,-1.609375 L 2.25,-10.9375 H 1.9375 l 2.25,-6.4375 h 1.921875 l 1.296875,-3.21875 h 3.53125 l 2.25,-6.4375 h 3.546875 l 2.25,-6.4375 H 6.4375 L 7.71875,-36.6875 H 6.75 l 1.609375,-4.828125 h 3.21875 L 12.234375,-43.125 H 5.15625 l 2.25,-6.4375 h 10.9375 l 0.96875,-3.21875 H 9.328125 l 0.640625,-1.609375 h 1.609375 L 13.84375,-60.8125 H 12.875 l 1.609375,-4.828125 h 1.28125 l 2.25,-6.4375 h 4.1875 l 1.609375,-4.828125 0.640625,-1.609375 h 16.09375 L 41.1875,-80.125 h -0.96875 l 1.609375,-4.828125 H 23.8125 l 2.25,-6.4375 h 5.796875 L 32.5,-93 h -3.53125 l 0.640625,-1.609375 H 39.90625 l 2.25,-6.437505 H 29.609375 l 1.28125,-3.21875 h 4.828125 l 2.25,-6.4375 h -2.890625 l 1.609375,-4.82812 h 3.53125 l 2.265625,-6.4375 h -0.96875 l 0.640625,-1.59375 H 34.75 l 1.296875,-3.21875 H 43.125 l 1.609375,-4.82812 h -3.21875 l 0.3125,-1.60938 H 47.625 l 2.25,-6.4375 h -7.078125 l 1.609375,-4.82812 H 40.875 l 0.953125,-3.21875 H 19.625 l 0.96875,-3.21875 h -4.1875 l 2.265625,-6.4375 h -4.1875 l 1.921875,-4.82813 h 12.5625 l 2.25,-6.4375 H 63.390625 L 65,-173.45312 H 49.5625 l 1.28125,-3.21875 H 62.75 l 2.25,-6.4375 H 54.390625 L 56,-187.92187 h 6.75 l 2.25,-6.4375 h -0.96875 l 2.265625,-6.4375 H 57.28125 l 0.328125,-1.60938 H 88.5 l 2.25,-6.4375 h -0.96875 l 0.640625,-1.60937 H 79.15625 l 1.296875,-4.1875 0.96875,-2.25 H 84.625 l 1.9375,-3.21875 h -0.96875 c 1.070312,-1.5 2.570312,-2.73438 4.5,-3.70313 1.9375,-0.96875 4.300781,-1.45312 7.09375,-1.45312 h 69.82812 c 2.78907,0 5.14844,0.48437 7.07813,1.45312 1.92578,0.96875 3.42578,2.20313 4.5,3.70313 h 1.29687 l 1.92188,3.21875 h -3.21875 c 0.42578,0.85546 0.64062,1.60546 0.64062,2.25 l 1.60938,4.1875 h 11.26562 l 0.32813,1.60937 h 0.96875 l 2.25,6.4375 h -30.57813 l 0.64063,1.60938 h 9.01562 l 2.25,6.4375 h 0.96875 l 2.25,6.4375 h -6.75 l 1.60938,4.8125 h 10.60937 l 2.25,6.4375 h -11.90625 l 1.29688,3.21875 H 192.75 l 1.60937,4.82812 H 162.1875 l 2.25,6.4375 h -12.54688 l 1.60938,4.82813 h 3.85937 l 2.25,6.4375 H 147.0625 l 1.28125,3.21875 h 51.17187 l 0.96875,3.21875 h -2.57812 l 1.60937,4.82812 h -6.4375 l 2.25,6.4375 h -7.71875 l 0.3125,1.60938 h 11.59375 l 1.60938,4.82812 h 0.3125 l 1.29687,3.21875 h -10.625 l 0.64063,1.59375 h 10.29687 l 2.26563,6.4375 h 3.53125 l 1.60937,4.82812 h -0.96875 l 2.26563,6.4375 h 5.14062 l 1.28125,3.21875 h -9.32812 l 2.25,6.437505 h 6.4375 L 217.85937,-93 H 216.25 l 0.64062,1.609375 h -5.79687 l 1.9375,6.4375 H 231.375 l 1.60937,4.828125 h 0.96875 l 0.64063,1.609375 h -16.42188 l 0.65625,1.609375 h 0.3125 l 1.60938,4.828125 h -4.1875 l 2.26562,6.4375 h -1.60937 l 1.92187,4.828125 h 0.96875 l 2.25,6.421875 H 220.75 l 0.64062,1.609375 h 9.98438 l 1.28125,3.21875 h -11.26563 l 2.26563,6.4375 h 7.07812 l 0.64063,1.609375 h -3.21875 l 1.92187,4.828125 h 0.65625 l 1.28125,3.21875 h 12.54688 l 2.25,6.4375 h 3.875 l 2.25,6.4375 h -13.20313 l 0.96875,3.21875 z m -134.5,-127.10937 h 3.85938 l -1.60938,4.82812 H 127.75 l -1.60937,-4.82812 h 2.57812 l -0.96875,-3.21875 h -14.48437 z m 10.60938,11.26562 -1.60938,-5.46875 -1.60937,5.46875 z M 103.625,-94.609375 102.96875,-93 h 3.54688 l -0.32813,0.96875 h 36.375 L 142.23437,-93 h 1.60938 l -0.32813,-1.609375 h -6.4375 l -1.92187,-6.437505 h 9.32812 l -0.96875,-3.21875 h -5.46875 l -1.92187,-6.4375 h 0.95312 l -1.28125,-4.82812 h -3.53125 l -1.9375,-6.4375 h -10.29687 l -0.64062,-1.59375 H 130 l -0.95313,-3.21875 h -0.32812 l -1.60937,-4.82812 H 116.8125 l -1.28125,4.82812 h -7.07812 l -0.96875,3.21875 h 7.07812 l -0.32812,1.59375 h 0.96875 l -1.9375,6.4375 h -3.53125 l -1.60938,4.82812 h 2.89063 l -1.92188,6.4375 h -4.82812 l -0.96875,3.21875 h 12.54687 l -1.92187,6.437505 z m 0,0"/>
          </g>
          <g transform="translate(1742.2949,1304.2506)">
            <path d="m 271.92187,-154.14062 v 1.60937 h -7.73437 c 0.21875,1.07422 0.32812,2.14844 0.32812,3.21875 0,1.07422 0,2.14844 0,3.21875 h -56.3125 c 0,2.79297 -1.39843,4.9375 -4.1875,6.4375 -1.28125,0.42969 -2.24609,0.64063 -2.89062,0.64063 h -65.65625 c -0.85547,0 -1.71484,-0.0508 -2.57813,-0.15625 -0.85546,-0.11329 -1.71093,-0.27344 -2.5625,-0.48438 H 77.875 v 1.60938 h 28.3125 c -0.21094,1.07421 -0.3125,2.14843 -0.3125,3.21875 0,1.07421 0,2.14843 0,3.21875 H 94.609375 c -0.21875,0.42968 -0.328125,0.96484 -0.328125,1.60937 0,0.63672 0,1.17188 0,1.60938 H 95.25 v 3.21874 H 90.421875 V -118.75 H 105.875 v 1.60937 H 53.734375 v 3.21875 H 70.15625 v 6.4375 h 33.14063 v 1.60938 H 89.78125 v 1.60937 h -8.6875 v 6.437505 H 105.875 c 0.20703,0.855469 0.3125,1.664063 0.3125,2.421875 0,0.75 0,1.554688 0,2.40625 h 9.01563 v 1.609375 H 73.6875 v 3.21875 H 64.359375 V -86.5625 H 106.1875 v 0.328125 h 64.35937 c 4.08204,0 6.44141,2.039063 7.07813,6.109375 h 47.64062 v 4.828125 H 223 l -0.64063,6.4375 h -3.53125 l -0.32812,3.21875 h 8.35937 c 0,0.636719 -0.10546,1.171875 -0.3125,1.609375 h -1.9375 c -0.21093,0.429688 -0.3125,0.964844 -0.3125,1.609375 h 10.60938 l -0.95313,4.8125 h -9.98437 c 0,0.21875 -0.0547,0.4375 -0.15625,0.65625 -0.10547,0.210937 -0.15625,0.527344 -0.15625,0.953125 h -2.57813 c -0.21875,0.867188 -0.49218,1.671875 -0.8125,2.421875 -0.32421,0.75 -0.58984,1.554687 -0.79687,2.40625 h 3.85937 c 0,0.21875 -0.21484,0.757813 -0.64062,1.609375 H 216.25 c -0.42969,1.074219 -0.91406,2.148438 -1.45313,3.21875 -0.53125,1.074219 -1.12109,2.148438 -1.76562,3.21875 h 6.4375 l -2.90625,4.828125 h 2.90625 L 216.25,-33.46875 h -1.9375 c -0.85547,1.074219 -1.76563,2.148438 -2.73438,3.21875 -0.96093,1.074219 -1.97656,2.148438 -3.04687,3.21875 h -2.57813 c -0.21875,0.21875 -0.4375,0.4375 -0.65625,0.65625 -0.21093,0.210938 -0.52734,0.527344 -0.95312,0.953125 H 190.5 l -1.60938,1.609375 h 64.6875 c -1.29296,1.074219 -2.58593,2.148438 -3.875,3.21875 -1.28125,1.074219 -2.67187,2.148438 -4.17187,3.21875 h -3.54688 c -2.14843,1.5 -4.71875,3.109375 -7.71875,4.828125 H 166.375 c -2.14844,1.28125 -4.40234,2.40625 -6.76563,3.375 -2.35546,0.96875 -4.71484,1.992187 -7.07812,3.0625 H 205.625 c -0.64844,0.210937 -1.34375,0.421875 -2.09375,0.640625 -0.75,0.210938 -1.55469,0.53125 -2.40625,0.96875 H 188.25 c -0.85547,0.210938 -1.71484,0.421875 -2.57813,0.640625 -0.85546,0.210937 -1.71093,0.53125 -2.5625,0.96875 H 159.9375 C 152.20703,-0.742188 144.26953,0.863281 136.125,1.9375 h 5.14062 c -3.42968,0.425781 -6.96875,0.742188 -10.625,0.953125 -3.64843,0.21875 -7.29296,0.328125 -10.93749,0.328125 -4.07422,0 -7.99219,-0.109375 -11.75,-0.328125 -3.75,-0.210937 -7.44922,-0.527344 -11.093755,-0.953125 H 91.71875 C 83.132812,0.863281 75.195312,-0.742188 67.90625,-2.890625 H 91.0625 c -0.855469,-0.4375 -1.65625,-0.757813 -2.40625,-0.96875 -0.75,-0.21875 -1.558594,-0.429687 -2.421875,-0.640625 H 99.4375 l -4.5,-1.609375 H 41.828125 c -2.148437,-1.070313 -4.34375,-2.09375 -6.59375,-3.0625 -2.25,-0.96875 -4.449219,-2.09375 -6.59375,-3.375 h 68.21875 C 95.578125,-13.410156 94.289062,-14.21875 93,-14.96875 c -1.292969,-0.75 -2.476562,-1.550781 -3.546875,-2.40625 H 93 c -2.574219,-1.925781 -5.042969,-4.070312 -7.40625,-6.4375 h -65 c -0.21875,-0.425781 -0.4375,-0.742188 -0.65625,-0.953125 -0.210938,-0.21875 -0.527344,-0.4375 -0.953125,-0.65625 h 14.15625 c -0.210937,-0.425781 -0.476563,-0.742187 -0.796875,-0.953125 -0.324219,-0.21875 -0.59375,-0.4375 -0.8125,-0.65625 h 2.578125 c -1.929687,-2.144531 -3.75,-4.289062 -5.46875,-6.4375 h 1.9375 l -2.90625,-4.828125 H 24.78125 L 21.875,-43.125 h -6.421875 l -2.90625,-6.4375 H 19.3125 l -0.640625,-1.609375 h -4.1875 c -0.21875,-0.851563 -0.4375,-1.65625 -0.65625,-2.40625 C 13.617188,-54.328125 13.300781,-55.132812 12.875,-56 h 2.578125 l -0.65625,-1.609375 h 9.984375 c -0.21875,-0.851563 -0.4375,-1.65625 -0.65625,-2.40625 -0.210938,-0.75 -0.421875,-1.550781 -0.640625,-2.40625 H 18.34375 c -0.21875,-0.4375 -0.328125,-0.972656 -0.328125,-1.609375 h -5.46875 c -0.210937,-0.4375 -0.3125,-0.972656 -0.3125,-1.609375 h 0.3125 c 0,-0.863281 -0.214844,-1.9375 -0.640625,-3.21875 H -6.4375 l -0.96875,-6.4375 H 17.375 c -0.210938,-0.863281 -0.3125,-1.671875 -0.3125,-2.421875 0,-0.75 -0.109375,-1.550781 -0.328125,-2.40625 h 6.109375 c 0,-0.644531 0,-1.289062 0,-1.9375 0,-0.644531 -0.105469,-1.285156 -0.3125,-1.921875 V -86.5625 H -19.3125 v -1.609375 h 9.34375 v -3.21875 h 41.5 V -93 h -9 c 0,-0.851562 -0.05859,-1.65625 -0.171875,-2.40625 -0.105469,-0.757812 -0.15625,-1.566406 -0.15625,-2.421875 h -24.78125 v -6.437505 h 8.6875 V -105.875 H 19.625 v -1.60938 h -33.140625 v -6.4375 h -16.40625 v -3.21875 h 52.125 V -118.75 H 6.75 v -6.42188 h 4.828125 v -3.21874 H 10.625 v -3.21875 h 11.578125 v -6.4375 h -28 v -1.60938 H 56 v -1.60937 c 0.207031,-0.86329 0.3125,-1.67188 0.3125,-2.42188 0,-0.75 0,-1.55078 0,-2.40625 H 39.265625 c 0,-1.07031 0.05078,-2.14453 0.15625,-3.21875 0.101563,-1.07031 0.265625,-2.14453 0.484375,-3.21875 h 10.296875 c 0.207031,-0.42578 0.3125,-0.96094 0.3125,-1.60937 H -16.09375 c 0.21875,-0.42579 0.328125,-0.96094 0.328125,-1.60938 0,-0.64453 0.105469,-1.17969 0.3125,-1.60937 H 43.125 l 1.609375,-6.4375 H 31.53125 L 32.5,-167.01562 H 10.9375 l 0.640625,-1.60938 h 7.09375 c 0.207031,-0.42578 0.414063,-0.96094 0.625,-1.60937 0.21875,-0.64454 0.4375,-1.17969 0.65625,-1.60938 H 16.40625 l 1.296875,-3.21875 H 19.3125 c 0.425781,-0.85156 0.851562,-1.65625 1.28125,-2.40625 0.425781,-0.75 0.75,-1.55469 0.96875,-2.42187 h 0.3125 l 2.90625,-4.82813 H 23.8125 c 0.425781,-0.85156 0.90625,-1.65625 1.4375,-2.40625 0.539062,-0.75 1.132812,-1.55078 1.78125,-2.40625 h -2.578125 c 0.863281,-1.07031 1.722656,-2.19531 2.578125,-3.375 0.851562,-1.1875 1.710938,-2.20703 2.578125,-3.0625 h -2.90625 c 0.21875,-0.4375 0.429687,-0.75781 0.640625,-0.96875 0.21875,-0.21875 0.4375,-0.42969 0.65625,-0.64062 h -3.21875 l 1.609375,-1.60938 H 25.75 c 0.425781,-0.42578 0.742188,-0.75 0.953125,-0.96875 0.21875,-0.21875 0.4375,-0.42969 0.65625,-0.64062 H 21.5625 c 0.425781,-0.42579 0.960938,-0.96094 1.609375,-1.60938 0.644531,-0.64453 1.285156,-1.17969 1.921875,-1.60937 h 7.734375 c 1.070313,-0.86329 2.144531,-1.67188 3.21875,-2.42188 1.070313,-0.75 2.144531,-1.55078 3.21875,-2.40625 H 35.71875 l 2.578125,-1.60937 h -5.46875 c 0.425781,-0.42579 0.851563,-0.75 1.28125,-0.96875 0.425781,-0.21875 0.851563,-0.42969 1.28125,-0.64063 H 52.125 c 1.507812,-0.85156 3.015625,-1.65625 4.515625,-2.40625 1.5,-0.75781 3,-1.56641 4.5,-2.42187 h -0.96875 c 1.289063,-0.64454 2.578125,-1.23438 3.859375,-1.76563 1.289062,-0.53906 2.582031,-1.02344 3.875,-1.45312 h 6.109375 c 0.644531,-0.42579 1.34375,-0.74219 2.09375,-0.95313 0.75,-0.21875 1.550781,-0.4375 2.40625,-0.65625 h -9.65625 c 6.4375,-2.36328 13.300781,-3.97266 20.59375,-4.82812 h 8.6875 c 8.375005,-1.28125 17.171875,-1.92188 26.390625,-1.92188 9.00781,0 17.69531,0.64063 26.0625,1.92188 h -8.35938 c 7.08204,0.85546 14.16016,2.46484 21.23438,4.82812 h 9.65625 c 0.85156,0.21875 1.65625,0.4375 2.40625,0.65625 0.75781,0.21094 1.56641,0.52734 2.42187,0.95313 h -6.10937 c 3.21875,1.07421 5.89844,2.14843 8.04687,3.21875 h 0.95313 c 1.71875,0.85546 3.32812,1.66406 4.82812,2.42187 1.5,0.75 3.00391,1.55469 4.51563,2.40625 h -16.42188 c 0.42579,0.21094 0.85157,0.42188 1.28125,0.64063 0.4375,0.21875 0.86719,0.54296 1.29688,0.96875 h 5.46875 c 0.42578,0.21093 0.85156,0.42187 1.28125,0.64062 0.4375,0.21875 0.75781,0.54297 0.96875,0.96875 h 3.54687 l 6.4375,4.82813 H 186 l 3.85937,3.21875 h 5.79688 l 1.92187,1.60937 h 0.32813 l 1.60937,1.60938 h 3.21875 l 1.60938,1.60937 h 2.89062 c 0.86329,0.85547 1.72266,1.875 2.57813,3.0625 0.85156,1.17969 1.71094,2.30469 2.57812,3.375 h 2.25 c 0.64454,0.85547 1.23438,1.65625 1.76563,2.40625 0.53906,0.75 1.02344,1.55469 1.45312,2.40625 h 0.96875 c 0.42579,0.86719 0.85157,1.67188 1.28125,2.42188 0.42579,0.75 0.85157,1.55468 1.28125,2.40625 H 220.75 c 0.42578,0.86718 0.85156,1.67187 1.28125,2.42187 0.4375,0.75 0.75781,1.55469 0.96875,2.40625 h -1.60938 l 0.96875,3.21875 h 3.54688 l 0.95312,3.21875 h -7.07812 c 0,0.21875 0.0508,0.4375 0.15625,0.65625 0.11328,0.21094 0.17187,0.52734 0.17187,0.95313 h 21.5625 c 0,0.86718 0.21094,1.9375 0.64063,3.21875 h -29.28125 l 0.96875,6.4375 h 18.65625 l 0.32812,3.21875 z m -147.70312,-9.65625 h 22.84375 c -3.4375,-1.28125 -7.30469,-1.92188 -11.59375,-1.92188 -4.28125,0 -8.03125,0.64063 -11.25,1.92188 z m 55.67187,15.45312 c -0.21875,-0.86328 -0.4375,-1.61328 -0.65625,-2.25 -0.21093,-0.64453 -0.52734,-1.28906 -0.95312,-1.9375 H 186 l -0.96875,-1.60937 h -38.60938 c -0.21875,-0.64454 -0.54296,-1.23438 -0.96875,-1.76563 -0.42968,-0.53906 -0.85546,-1.02344 -1.28125,-1.45312 H 71.109375 c -0.210937,0.42968 -0.476563,0.91406 -0.796875,1.45312 -0.324219,0.53125 -0.699219,1.12109 -1.125,1.76563 h 66.60937 l -0.64062,1.60937 h -10.29687 c -0.42969,0.85547 -0.75,1.875 -0.96875,3.0625 -0.21875,1.17969 -0.4336,2.30469 -0.64063,3.375 h 57.59375 z M 141.90625,-80.125 h -41.1875 l 0.96875,4.828125 H 76.90625 c 0.425781,1.28125 0.851562,2.40625 1.28125,3.375 0.4375,0.96875 0.976562,1.992187 1.625,3.0625 h 18.328125 c 0.4375,0.636719 0.867187,1.226563 1.296875,1.765625 0.425781,0.53125 0.85156,1.015625 1.28125,1.453125 h -0.64062 l 1.60937,1.609375 h 5.46875 c 0.42578,0.210938 0.85156,0.476562 1.28125,0.796875 0.4375,0.324219 0.86719,0.59375 1.29688,0.8125 h 5.14062 c 3.65625,1.929687 8.05469,2.890625 13.20312,2.890625 5.14454,0 9.4375,-0.960938 12.875,-2.890625 h -10.625 l 2.57813,-1.609375 h 1.92187 l 1.9375,-1.609375 h -8.375 c 0.4375,-0.4375 0.92188,-0.921875 1.45313,-1.453125 0.53906,-0.539062 0.91406,-1.128906 1.125,-1.765625 h 3.54687 c 1.28125,-1.9375 2.35157,-4.082031 3.21875,-6.4375 h 2.25 l 0.64063,-1.609375 c 0.42578,-1.289062 0.85156,-2.363281 1.28125,-3.21875 z m 0,0"/>
          </g>
          <g transform="translate(1745.201,1544.9845)">
            <path d="m 239.42187,-17.375 3.85938,6.4375 H 229.125 l 0.3125,0.3125 c 0.21875,0.21875 0.37891,0.652344 0.48437,1.296875 0.10157,0.648437 0.26563,1.183594 0.48438,1.609375 h -0.96875 v 0.640625 c 0,0.855469 -0.10938,1.605469 -0.32813,2.25 -0.21093,0.648437 -0.52734,1.292969 -0.95312,1.9375 h 4.1875 c -0.4375,0.636719 -0.97656,1.171875 -1.60938,1.609375 H 212.0625 C 210.98828,-0.425781 209.59375,0 207.875,0 h -73.35938 c -1.29296,0 -2.47656,-0.160156 -3.54687,-0.484375 -1.07422,-0.320313 -2.03906,-0.585937 -2.89063,-0.796875 h 18.65625 C 146.09766,-1.5 145.13281,-2.035156 143.84375,-2.890625 h -4.1875 c -1.07422,-0.863281 -1.88281,-1.722656 -2.42188,-2.578125 -0.53125,-0.851562 -1.01171,-1.5 -1.4375,-1.9375 l -0.32812,-0.3125 h 0.96875 l -1.60938,-3.21875 h 13.84375 L 145.125,-17.375 h 28.96875 L 173.125,-18.984375 H 148.03125 L 147.70312,-19.625 v 0.640625 H 97.5 V -17.375 h 33.46875 v 6.4375 H 110.375 v 3.21875 H 79.15625 c 0,0.855469 -0.214844,1.714844 -0.640625,2.578125 -0.429687,0.855469 -0.855469,1.605469 -1.28125,2.25 h -2.90625 C 73.472656,-2.035156 72.832031,-1.5 72.40625,-1.28125 H 51.484375 C 50.410156,-0.425781 48.910156,0 46.984375,0 h -61.46875 c -1.925781,0 -3.425781,-0.425781 -4.5,-1.28125 H 1.609375 C 1.179688,-1.5 0.535156,-2.035156 -0.328125,-2.890625 h 2.90625 C 2.148438,-3.535156 1.71875,-4.285156 1.28125,-5.140625 0.851562,-6.003906 0.640625,-6.863281 0.640625,-7.71875 H 31.53125 V -10.9375 H 52.125 V -17.375 H 18.671875 v -1.609375 h 50.1875 V -23.8125 H 7.40625 v -4.828125 h 5.78125 v -6.4375 h 5.15625 v -3.21875 H 17.375 v -6.4375 h -0.640625 v -6.4375 H 14.15625 V -56 h 1.9375 v -3.203125 H 19.625 v -6.4375 h 11.59375 v -4.828125 h -40.875 v -3.21875 h -2.890625 v -1.609375 h 36.6875 v -3.21875 h 3.21875 V -80.125 h -41.84375 v -4.828125 h 5.46875 v -3.21875 h 1.9375 v -6.4375 h 31.53125 v -3.21875 h 8.6875 v -4.828125 H -7.40625 v -6.4375 H 3.546875 v -4.82813 h 14.15625 v -1.60937 h 21.5625 V -118.75 h 11.25 v -4.8125 h 2.265625 v -1.60938 H 46.015625 V -130 h -21.5625 v -1.60937 h -15.125 v -6.4375 h 60.1875 v -3.21875 H -4.5 v -3.21875 h 55.671875 v -4.82813 h -53.75 v -3.21875 H 18.34375 V -155.75 h 19.953125 v -6.4375 h -6.4375 v -4.82812 h 1.921875 v -4.82813 h -9.328125 v -1.60937 h -6.75 v -4.82813 h -1.9375 v -1.60937 h 4.1875 v -3.21875 h 4.1875 v -6.42188 h -35.40625 v -1.60937 h 1.9375 V -192.75 h 13.1875 v -1.60937 h -4.5 v -1.60938 h 24.78125 v -1.60937 h -6.125 v -1.60938 h -0.3125 v -6.4375 H 19.3125 v -3.21875 h 22.203125 v -3.21875 h 2.890625 v -3.21875 h 1.28125 v -1.60937 H 11.265625 c 0.207031,-2.36329 1.28125,-4.50782 3.21875,-6.4375 h 3.53125 c 1.289063,-1.28907 3.113281,-1.9375 5.46875,-1.9375 h 61.46875 c 2.144531,0 3.96875,0.64843 5.46875,1.9375 h -3.53125 c 2.144531,1.71875 3.21875,3.86718 3.21875,6.4375 h 34.421875 v 1.60937 H 123.25 v 3.21875 h -2.89062 v 3.21875 H 98.140625 v 3.21875 h -1.59375 v 6.4375 h 0.3125 v 1.60938 h 6.109375 v 1.60937 H 78.203125 v 1.60938 h 4.5 v 1.60937 h -13.1875 v 1.60938 h -1.9375 v 1.60937 h 30.25 l 0.96875,-1.60937 h 10.296875 l 0.64063,-1.60938 h 18.65624 l 0.96875,-1.60937 h -18.65624 l 0.95312,-1.60938 h 5.48438 l 0.95312,-1.60937 h 1.60938 l 0.96875,-1.60938 h 2.89062 l 0.65625,-1.60937 H 127.75 l 2.57812,-4.82813 h -1.60937 l 1.9375,-3.21875 h 18.32812 l 1.60938,-3.21875 h -14.79688 l 1.60938,-3.21875 H 153.5 l 0.64062,-1.60937 h -21.875 l 0.64063,-1.28125 c 1.07031,-2.14454 2.67969,-3.86329 4.82812,-5.15625 h -2.57812 c 1.92578,-1.28907 4.5,-1.9375 7.71875,-1.9375 H 214 c 1.92578,0 3.53516,0.64843 4.82812,1.9375 h 2.89063 c 1.5,1.5 2.25,3.21875 2.25,5.15625 0,0.63671 -0.10547,1.0625 -0.3125,1.28125 h 22.20312 c 0,0.21875 -0.0586,0.4375 -0.17187,0.65625 -0.10547,0.21093 -0.15625,0.52734 -0.15625,0.95312 h -15.76563 l -0.64062,0.64063 -1.29688,2.57812 h 14.8125 l -1.9375,3.21875 h -18.34375 l -1.92187,3.21875 h 1.60937 l -2.90625,4.82813 h -3.21875 l -0.96875,1.60937 h -2.89062 l -0.96875,1.60938 h -1.60938 l -0.95312,1.60937 h -5.79688 l -0.96875,1.60938 H 220.75 l -0.96875,1.60937 H 201.125 l -0.96875,1.60938 h -10.29688 l -0.96875,1.60937 h 1.9375 l -3.54687,6.42188 h 12.875 l -1.92188,3.21875 h 2.89063 l -0.96875,1.60937 h 0.32812 l -2.90625,4.82813 h 4.51563 l -0.96875,1.60937 h 0.3125 l -2.89063,4.82813 h -6.4375 l -2.89062,4.82812 h 6.75 l -3.85938,6.4375 h -3.53125 l -1.9375,3.21875 h -20.92187 l -1.92188,3.21875 h 53.73438 l -2.89063,4.82813 h -55.67187 l -1.9375,3.21875 h 74.01562 l -1.92187,3.21875 h -60.1875 l -3.85938,6.4375 h 15.125 L 179.23437,-130 h 21.5625 l -2.89062,4.82812 h 6.75 l -0.95313,1.60938 h -2.26562 l -2.89063,4.8125 h -11.26562 l -0.64063,1.29687 1.28125,1.92188 H 166.375 l 0.95312,1.60937 h -14.15625 l 2.90625,4.82813 H 144.8125 l 3.85937,6.4375 h 40.54688 l 2.89062,4.828125 h -8.6875 l 1.9375,3.21875 H 153.8125 l 3.875,6.4375 H 155.75 l 1.9375,3.21875 h -5.48438 l 2.90625,4.828125 h 41.82813 l 0.96875,1.609375 h -3.54688 l 1.9375,3.21875 h -9.01562 L 188.25,-73.6875 h -3.21875 l 1.9375,3.21875 h -23.8125 l 2.89062,4.828125 h 27.67188 l 3.85937,6.4375 H 196.9375 L 198.875,-56 h 2.5625 l 2.90625,4.828125 h 5.79687 l 3.85938,6.4375 h -5.79688 l 3.85938,6.4375 h 0.32812 L 214,-35.078125 h 0.64062 l 3.85938,6.4375 h 1.9375 l 2.89062,4.828125 h 16.09375 l 2.89063,4.828125 h 25.09375 L 268.375,-17.375 Z M 96.546875,-173.45312 h 6.750005 v 1.60937 h 7.40625 l 0.95312,-1.60937 h -4.5 l 2.57813,-4.82813 h -0.32813 l 0.96875,-1.60937 h -2.89062 l 1.60937,-3.21875 H 98.796875 v 3.21875 h -4.1875 v 1.60937 h 1.9375 z m 2.25,17.70312 H 97.1875 v 2.89063 z m 4.171875,80.453125 h 0.96875 l -0.96875,-2.25 z M 66.296875,-73.6875 H 69.1875 v 3.21875 h 25.421875 l -1.9375,-3.21875 h 3.21875 L 94.9375,-75.296875 H 66.296875 Z m 19.9375,49.875 h 43.124995 l -2.57812,-4.828125 h -2.25 L 121,-35.078125 h -0.64062 l -1.60938,-3.21875 h -0.32812 l -3.54688,-6.4375 h 5.79688 l -3.53125,-6.4375 h -5.79688 L 108.45313,-56 H 105.875 l -1.60937,-3.203125 h 0.64062 l -3.85937,-6.4375 h -2.57813 v 6.4375 H 94.9375 V -56 H 93 v 4.828125 h 2.578125 v 6.4375 h 0.640625 v 6.4375 h 0.96875 v 3.21875 h -5.15625 v 6.4375 h -5.796875 z m 0,0"/>
          </g>
          <g transform="translate(1752.9231,1785.7183)">
              <path d="M 221.07812,-56 H 246.5 v 4.828125 h -48.92188 v 6.4375 H 229.125 v 6.4375 h -27.6875 v 6.4375 h 3.54687 v 4.828125 h -2.25 v 3.21875 h -6.76562 v 3.21875 h -0.3125 v 3.21875 h 6.75 v 6.4375 H 211.75 v 2.25 c 0,0.429688 -0.10938,0.75 -0.32813,0.96875 h -57.28125 c -0.21875,0.429688 -0.32812,0.964844 -0.32812,1.609375 h 22.20312 c -0.63671,2.148437 -1.8125,3.757813 -3.53125,4.828125 H 166.375 C 165.30078,-0.425781 163.79687,0 161.85937,0 H -5.796875 C -7.503906,0 -9.113281,-0.425781 -10.625,-1.28125 H -4.5 C -6,-2.351562 -7.179688,-3.960938 -8.046875,-6.109375 h -22.53125 c -0.207031,-0.425781 -0.3125,-0.960937 -0.3125,-1.609375 h 57.59375 V -10.9375 H 17.375 v -6.4375 h -6.75 v -3.21875 h 0.3125 v -3.21875 h 6.765625 v -3.21875 h 2.25 v -4.828125 H 16.40625 v -6.4375 h 27.6875 v -6.4375 H 12.546875 v -6.4375 H 61.46875 V -56 H 36.046875 v -3.203125 H 43.4375 v -3.21875 h 3.21875 v -3.21875 H 10.9375 v -3.21875 H 2.578125 V -73.6875 H 32.5 v -1.609375 H 8.6875 v -3.21875 h 7.078125 v -3.21875 h 5.15625 V -86.5625 h -0.65625 V -93 H 17.0625 v -6.4375 h -4.828125 v -3.21875 h 3.859375 v -6.4375 h -3.546875 v -3.21875 h 5.15625 v -4.82813 h 1.28125 v -4.82812 h 5.796875 v -1.59375 H 19.3125 V -130 h -4.828125 v -4.82812 h 1.28125 v -4.82813 h 0.640625 v -6.4375 h 4.828125 v -6.4375 H 14.15625 v -6.4375 H 15.125 v -6.4375 h 9.015625 v -4.82812 H 19.3125 v -4.82813 h -2.578125 v -1.60937 H 30.25 V -181.5 h 23.8125 v -3.21875 h -9.65625 v -3.20312 H 13.1875 v -1.60938 h 3.546875 v -4.82812 H 17.0625 v -4.82813 h 0.953125 v -6.4375 h -0.3125 v -8.04687 H 17.0625 v -2.89063 c 0,-0.86328 0.101562,-1.50781 0.3125,-1.9375 h -3.21875 c 0.863281,-4.50781 3.65625,-6.76562 8.375,-6.76562 h 165.07812 c 4.9375,0 7.72266,2.25781 8.35938,6.76562 h 3.21875 c 0.21875,0.42969 0.32812,1.07422 0.32812,1.9375 v 2.89063 h 0.64063 v 8.04687 h 0.32812 v 6.4375 h -0.96875 v 4.82813 h -0.32812 v 4.82812 h -3.53125 v 1.60938 h 31.20312 v 3.20312 h 9.65625 V -181.5 h -23.8125 v 4.82813 H 199.1875 v 1.60937 h 2.57812 v 4.82813 h 4.82813 c -0.42969,2.14843 -1.17969,3.75781 -2.25,4.82812 h -9.01563 c -1.5,1.9375 -3.64843,2.90625 -6.4375,2.90625 H 92.359375 v 3.53125 h -0.96875 v 6.4375 h 7.078125 v 6.4375 h -4.828125 v 3.85938 h 89.468745 c 2.35157,0 4.39063,0.85937 6.10938,2.57812 h -0.64063 c 1.07032,1.07422 1.82032,2.68359 2.25,4.82813 h -0.96875 V -130 h 4.82813 v 6.4375 h 5.46875 v 1.59375 h -5.79688 v 4.82812 h -1.28125 v 4.82813 h -5.15625 v 3.21875 h 3.54688 v 6.4375 h -3.85938 v 3.21875 h 4.82813 V -93 h 3.21875 v 1.28125 c 0,2.367188 -0.53906,4.085938 -1.60938,5.15625 h 0.64063 c -1.71875,2.355469 -4.07813,3.53125 -7.07813,3.53125 H 98.140625 v 1.296875 H 93 v 3.21875 h -7.078125 v 3.21875 H 109.73438 V -73.6875 H 79.8125 v 4.828125 h 8.359375 v 3.21875 H 123.89063 V -62.75 H 223 c 1.07031,0 1.92969,0.109375 2.57812,0.328125 h -3.53125 c 2.14454,0.636719 3.75,1.710937 4.8125,3.21875 h -7.39062 c 0.85156,1.28125 1.39062,2.351563 1.60937,3.203125 z m 0,0"/>
          </g>
          <g transform="translate(1741.17,2026.4521)">
            <path d="m 262.90625,-175.0625 c 0.42578,0.86719 0.85156,1.67188 1.28125,2.42188 0.4375,0.75 0.75781,1.55468 0.96875,2.40625 H 253.25 c 0.42578,0.86718 0.85156,1.88671 1.28125,3.0625 0.4375,1.17968 0.86719,2.30468 1.29687,3.375 H 205.3125 l 1.92187,6.4375 h 26.0625 l 0.96875,4.82812 h -3.53125 c 0.20704,0.42969 0.3125,0.96484 0.3125,1.60938 0,0.64843 0.10938,1.18359 0.32813,1.60937 h -8.6875 l 0.3125,3.21875 h 6.76562 c 0,0.85547 0.0508,1.65625 0.15625,2.40625 0.10157,0.75 0.15625,1.55859 0.15625,2.42188 h 11.90625 c 0.21875,0.85546 0.32813,1.60546 0.32813,2.25 0,0.64843 0,1.39843 0,2.25 v 0.32812 h -30.25 c 0,1.07422 0.0508,2.14844 0.15625,3.21875 0.11328,1.07422 0.17187,2.14844 0.17187,3.21875 h 6.75 c 0,1.07422 0.0508,2.14844 0.15625,3.21875 0.11329,1.07422 0.17188,2.14844 0.17188,3.21875 h 11.57812 v 1.59375 h -4.5 v 6.4375 h 1.28125 v 4.82812 h 18.98438 v 6.4375 h -18.01563 v 3.21875 h -1.9375 c 0,0.42969 0,0.96485 0,1.60938 0,0.648438 -0.10546,1.183594 -0.3125,1.609375 H 220.75 v 6.4375 h 0.64062 c -0.21093,0.648437 -0.3125,1.507813 -0.3125,2.578125 v 0.640625 h 11.90625 c 0,0.855469 -0.0586,1.664063 -0.17187,2.421875 -0.10547,0.75 -0.15625,1.554688 -0.15625,2.40625 h 4.82812 c 0,1.074219 -0.0547,2.148438 -0.15625,3.21875 -0.10546,1.074219 -0.26562,2.148438 -0.48437,3.21875 h -7.07813 c -0.21875,0.429688 -0.32812,0.964844 -0.32812,1.609375 0,0.648437 -0.10547,1.183594 -0.3125,1.609375 H 190.5 c 0,0.855469 -0.21484,1.929688 -0.64063,3.21875 h 33.79688 C 223.21875,-69.1875 223,-68.113281 223,-67.25 h 4.82812 c -0.21093,0.855469 -0.37109,1.65625 -0.48437,2.40625 -0.10547,0.75 -0.37109,1.558594 -0.79688,2.421875 l -0.96875,3.21875 H 216.25 l -0.64063,1.59375 h 15.125 c -0.4375,0.867187 -0.65625,1.402344 -0.65625,1.609375 h -9.64062 l -0.65625,1.609375 h -0.3125 c -0.42969,1.074219 -0.85938,2.148437 -1.29688,3.21875 -0.42968,1.074219 -0.96484,2.148437 -1.60937,3.21875 H 211.75 l -3.54688,6.4375 h 5.46875 l -1.92187,3.21875 h 0.3125 c -0.42969,0.429687 -0.85547,0.964844 -1.28125,1.609375 -0.42969,0.648438 -0.85938,1.183594 -1.29688,1.609375 h -2.25 c -0.64843,0.648437 -1.07421,1.183594 -1.28125,1.609375 -0.64843,0.855469 -1.29296,1.664062 -1.9375,2.421875 -0.64843,0.75 -1.39843,1.554687 -2.25,2.40625 h -0.96875 c -1.07421,1.074219 -2.19921,2.148437 -3.375,3.21875 -1.17968,1.074219 -2.41406,2.148437 -3.70312,3.21875 h 2.90625 l -6.76563,4.828125 h 0.32813 c -1.71875,1.074219 -3.54688,2.148438 -5.48438,3.21875 -1.92968,1.074219 -3.96484,2.148438 -6.10937,3.21875 h -0.3125 c -2.14844,1.074219 -4.82813,2.148438 -8.04688,3.21875 h 0.3125 c -4.29296,1.5 -8.79687,2.789062 -13.51562,3.859375 -4.71875,1.074219 -9.54297,1.933594 -14.46875,2.578125 h 6.75 c -3.42969,0.429688 -6.96875,0.75 -10.625,0.96875 C 135.03906,-0.101562 131.28906,0 127.4375,0 H 33.140625 c -1.929687,0 -3.429687,-0.425781 -4.5,-1.28125 H 21.875 c -2.136719,-1.289062 -3.421875,-3.4375 -3.859375,-6.4375 h -0.3125 v -3.21875 h 0.640625 v -6.4375 h -0.640625 v -4.828125 H 15.125 v -6.4375 h 0.96875 v -4.828125 h -0.328125 v -1.609375 h 2.578125 v -3.21875 h -0.328125 v -3.21875 h -5.78125 v -6.4375 H 17.375 v -6.4375 h 0.328125 V -56 h 9.65625 v -1.609375 h -14.8125 v -1.59375 H 21.875 V -67.25 h -4.5 v -3.21875 h -0.3125 v -3.21875 h 8.359375 v -3.21875 h -37 v -6.4375 H -12.875 v -4.828125 h 4.1875 v -3.21875 H 4.5 v -6.4375 h 8.375 v -3.218755 h 4.828125 v -3.21875 h 5.140625 v -6.4375 H 30.25 v -4.82812 h 7.078125 v -6.4375 h -21.5625 v -1.59375 H 8.6875 V -130 H -5.46875 v -6.4375 h 36.6875 v -4.82812 H 2.890625 v -4.82813 H 18.34375 v -3.21875 h -0.640625 v -3.21875 H 15.125 v -4.82812 H 1.28125 v -6.4375 h 50.203125 v -6.4375 h 11.90625 v -4.82813 H 5.46875 V -181.5 H 43.4375 v -1.60937 H 13.515625 v -1.60938 h 60.8125 v -6.42187 h -7.71875 V -192.75 H -9.96875 v -6.4375 h 9.328125 v -4.82812 H 19.3125 v -1.60938 h 10.609375 v -3.21875 h -5.78125 v -1.60937 H 17.375 v -3.21875 h 0.640625 v -2.89063 c 0,-0.4375 0.05078,-0.8125 0.15625,-1.125 0.113281,-0.32031 0.171875,-0.59375 0.171875,-0.8125 H 19.625 c 1.070312,-4.50781 3.96875,-6.76562 8.6875,-6.76562 H 121 c 16.51953,0 31.53516,2.25781 45.04687,6.76562 h -1.28125 c 3.85157,1.29297 7.82032,2.90234 11.90625,4.82813 h -0.65625 c 1.07032,0.42968 2.19532,0.91406 3.375,1.45312 1.1875,0.53125 2.20704,1.12109 3.0625,1.76563 h 6.76563 l 2.89062,1.60937 h 5.46875 c 1.07032,0.42969 1.98438,0.96484 2.73438,1.60938 0.75,0.64843 1.55469,1.18359 2.42187,1.60937 h -10.625 c 0.42579,0.21094 0.85157,0.42188 1.28125,0.64063 0.4375,0.21875 0.75782,0.54296 0.96875,0.96875 h -19.95312 l 6.125,4.82812 H 170.875 c 2.35156,1.92969 4.5,4.07422 6.4375,6.4375 h 76.57812 c 0.21875,0.21094 0.42969,0.42188 0.64063,0.64063 0.21875,0.21093 0.4375,0.53125 0.65625,0.96875 h 8.04687 c 0.85157,0.85546 1.70704,1.87109 2.5625,3.04687 0.86329,1.17969 1.61719,2.30469 2.26563,3.375 h -60.82813 c 0.21875,0.21875 0.42969,0.4375 0.64063,0.65625 0.21875,0.21094 0.4375,0.52734 0.65625,0.95313 h 29.92187 l 0.96875,1.60937 H 201.4375 c 1.50781,2.14844 2.69141,4.29297 3.54687,6.4375 z m -113.59375,22.53125 c -1.28125,-1.92578 -2.89063,-3.53516 -4.82813,-4.82812 h -26.06249 c -4.71875,-3.42579 -10.51172,-5.14063 -17.375,-5.14063 H 81.734375 v 5.14063 h 13.84375 v 4.82812 h 2.5625 v 3.21875 h 0.65625 v 3.21875 H 83.34375 v 4.82813 h 28.3125 v 4.82812 H 74.984375 V -130 h 14.15625 v 6.4375 h 7.078125 v 1.59375 h 21.5625 v 6.4375 h -7.07812 v 4.82812 h -7.40625 v 6.4375 h -5.156255 v 3.21875 h -4.8125 v 3.218755 h -8.375 v 6.4375 h -13.1875 v 3.21875 h -4.1875 v 4.828125 h 1.28125 v 6.4375 H 105.875 v 3.21875 H 97.5 v 3.21875 h 0.328125 V -67.25 h 4.500005 v 4.5 H 123.25 c 6.21875,0 11.47266,-1.5 15.76562,-4.5 H 133.875 c 0.63281,-0.4375 1.27344,-0.921875 1.92187,-1.453125 0.64454,-0.539063 1.17969,-1.128906 1.60938,-1.765625 H 103.9375 c 0.42578,-0.425781 0.85156,-0.90625 1.28125,-1.4375 0.4375,-0.539062 0.75781,-1.132812 0.96875,-1.78125 h 38.625 c 0.42578,-0.425781 0.74219,-0.90625 0.95312,-1.4375 0.21875,-0.539062 0.4375,-1.132812 0.65625,-1.78125 h 7.39063 c 0.4375,-1.070312 0.75781,-2.144531 0.96875,-3.21875 0.21875,-1.070312 0.42969,-2.144531 0.64062,-3.21875 h -4.82812 c 0.21875,-0.851562 0.32812,-1.65625 0.32812,-2.40625 0,-0.757812 0.10938,-1.566406 0.32813,-2.421875 H 139.34375 V -88.8125 c 0,-0.425781 0.0508,-0.851562 0.15625,-1.28125 0.10156,-0.4375 0.15625,-0.867188 0.15625,-1.296875 h -0.64063 c 0,-1.070313 0,-2.195313 0,-3.375 0,-1.1875 0.10938,-2.207031 0.32813,-3.0625 h 5.78125 v -3.218755 h 1.9375 l 0.32812,-3.21875 h 18.01563 v -6.4375 h -18.98438 v -4.82812 H 145.125 v -6.4375 h 4.51562 v -1.59375 H 137.73437 V -130 h -7.07812 c 0,-1.07031 0,-2.14453 0,-3.21875 0,-1.07031 -0.10938,-2.14453 -0.32813,-3.21875 h 30.25 v -0.32812 c 0,-0.85157 -0.0586,-1.65625 -0.17187,-2.40625 -0.10547,-0.75 -0.15625,-1.44532 -0.15625,-2.09375 h -11.90625 c -0.21094,-0.86329 -0.42188,-1.67188 -0.64063,-2.42188 -0.21093,-0.75 -0.42187,-1.55078 -0.64062,-2.40625 h -6.76563 c -0.21093,-0.64453 -0.42187,-1.23437 -0.64062,-1.76562 -0.21094,-0.53907 -0.42188,-1.02344 -0.64063,-1.45313 h 8.6875 c -0.21093,-0.64453 -0.47656,-1.23437 -0.79687,-1.76562 -0.32422,-0.53907 -0.69922,-1.02344 -1.125,-1.45313 z m 0,0"/>
          </g>
        </g>
      </g>
    </symbol>

    <symbol id="hacked-orizontal" viewBox="0 0 751 136">
      <g transform="matrix(0.5, 0, 0, 0.5, -570, -590)">
        <g id="hacked-orizontal-color" fill-opacity="1">
          <g transform="translate(1163.212,1424.9925)">
            <path d="m 244.89062,-75.296875 v 1.609375 h 25.09375 v 3.21875 h -1.28125 v 4.828125 h -66.60937 v 1.609375 h 11.57812 v 4.828125 h 35.40625 V -56 h -18.34375 v 6.4375 h -0.96875 v 1.609375 H 208.53125 V -43.125 h 31.53125 v 1.609375 h 1.28125 v 4.828125 h 3.21875 v 6.4375 h -62.10938 v 4.828125 h 65.65625 v 3.21875 H 226.21875 V -17.375 h -2.89063 v 3.21875 h 7.40625 v 3.21875 h -4.82812 v 3.21875 h 11.26562 L 236.20312,-4.5 h 15.125 c -0.42968,0.636719 -0.91406,1.226562 -1.45312,1.765625 -0.53125,0.53125 -1.12109,1.015625 -1.76563,1.453125 H 255.5 C 254.42578,-0.425781 252.92578,0 251,0 h -63.07813 c -1.92968,0 -3.42968,-0.425781 -4.5,-1.28125 h -7.40625 C 174.51562,-1.925781 173.44531,-3 172.8125,-4.5 h -15.125 l -0.96875,-3.21875 h -11.26563 v -3.21875 h 4.82813 v -3.21875 H 142.875 V -17.375 h 2.90625 v -4.828125 h 21.875 v -3.21875 h -58.25 v 3.21875 H 82.703125 V -17.375 h 18.343755 v 3.21875 h -4.500005 v 3.21875 h 16.718755 v 3.21875 H 95.25 L 94.28125,-4.5 h 7.07813 c -0.85547,1.5 -1.820318,2.574219 -2.89063,3.21875 H 90.75 C 89.675781,-0.425781 88.171875,0 86.234375,0 h -63.0625 C 21.023438,0 19.414062,-0.425781 18.34375,-1.28125 H 26.0625 C 24.988281,-1.925781 24.023438,-3 23.171875,-4.5 h -7.40625 c -0.648437,-1.070312 -0.96875,-2.144531 -0.96875,-3.21875 h 18.03125 V -10.9375 H 16.09375 v -3.21875 h 4.5 V -17.375 H 2.25 v -4.828125 h 26.71875 v -3.21875 h 15.4375 V -30.25 h -49.5625 v -6.4375 H 13.1875 v -4.828125 h 12.875 V -43.125 h -9 v -4.828125 H 1.9375 V -49.5625 H 5.15625 V -56 h 10.296875 v -3.203125 h 4.8125 v -4.828125 h -23.15625 v -1.609375 h 59.53125 V -70.46875 H -16.09375 v -3.21875 h 68.546875 v -1.609375 H 18.984375 V -80.125 h 19.3125 v -1.609375 h 3.859375 v -1.609375 h -1.609375 v -6.4375 H 8.6875 v -4.828125 h 10.625 v -1.609375 h -2.90625 v -4.82813 h 1.296875 v -1.60937 h 0.3125 v -3.21875 h 0.328125 v -1.60938 h -4.1875 v -1.60937 H 1.609375 v -4.82813 h 4.1875 V -118.75 h -6.4375 v -4.8125 h 16.09375 V -130 H 11.90625 v -3.21875 h -23.484375 v -1.60937 H 26.0625 v -3.21875 h 9.015625 v -1.60938 H -51.8125 v -1.60937 h 51.171875 v -1.60938 h 18.34375 v -4.82812 H -15.125 v -6.4375 h -9.015625 v -4.82813 h 38.625 v -6.4375 h 3.21875 v -4.82812 h 20.59375 v -1.60938 H 20.59375 v -6.4375 H 35.078125 V -181.5 h -17.375 v -1.60937 h -6.125 v -3.21875 H 2.25 v -3.20313 H -9.015625 v -6.4375 h 20.28125 v -4.82812 h 12.21875 v -4.82813 h -5.78125 v -3.21875 H 9.65625 v -1.60937 h 4.5 v -3.21875 H 13.1875 v -2.89063 c 0,-1.50781 0.320312,-2.69141 0.96875,-3.54687 H 34.75 c 0.21875,-0.64454 0.539062,-1.23438 0.96875,-1.76563 0.425781,-0.53906 0.851562,-1.02344 1.28125,-1.45312 h 49.5625 c 1.289062,-1.28907 3.113281,-1.9375 5.46875,-1.9375 h 123.57812 c 2.14454,0 3.96875,0.64843 5.46875,1.9375 H 270.625 c 0.4375,0.42968 0.92187,0.91406 1.45312,1.45312 0.53907,0.53125 0.91407,1.12109 1.125,1.76563 H 231.6875 c 0.4375,1.29296 0.65625,2.47656 0.65625,3.54687 v 2.89063 h 1.60937 v 3.21875 h 4.5 v 1.60937 h -8.6875 v 3.21875 h -3.85937 v 4.82813 h 12.54687 v 4.82812 h -30.25 v 6.4375 h 34.75 v 3.20313 h -25.09375 v 3.21875 h 10.29688 V -181.5 H 223 v 3.21875 h 24.14062 v 6.4375 H 211.75 v 1.60938 h 27.34375 v 4.82812 h -4.82813 v 6.4375 h -25.73437 v 4.82813 h -10.625 v 6.4375 h 32.82812 v 4.82812 h -18.34375 v 1.60938 h -51.17187 v 1.60937 h 86.89062 v 1.60938 h -9.01562 v 3.21875 H 201.4375 v 1.60937 h 23.5 V -130 h 3.53125 v 6.4375 h -16.07813 v 4.8125 h 6.4375 v 4.82812 h -4.1875 v 4.82813 h 12.54688 v 1.60937 h 4.1875 v 1.60938 h -0.32813 v 3.21875 h -0.3125 v 1.60937 h -1.29687 v 4.82813 h 2.90625 v 1.609375 h -10.625 v 4.828125 h 31.85937 v 6.4375 h 1.60938 v 1.609375 h -3.85938 V -80.125 h -19.3125 v 4.828125 z M 56.3125,-158.96875 v 4.82813 h 9.015625 v 5.15625 h 52.125005 v -5.15625 h 10.62499 v -4.82813 h 25.73438 v -6.4375 h 4.82812 v -4.82812 h -27.34375 v -1.60938 h 35.39063 v -6.4375 h -24.125 V -181.5 h 5.14062 v -1.60937 h -10.29687 v -3.21875 H 162.5 v -3.20313 h -34.75 v -6.4375 H 158 v -4.82812 h -12.54688 v -4.82813 h 3.85938 v -3.21875 H 158 v -1.60937 h -4.5 v -3.21875 h -1.60938 v -2.89063 c 0,-1.07031 0.21094,-2.25391 0.64063,-3.54687 h 41.51562 c 0.42579,-0.64454 0.85157,-1.23438 1.28125,-1.76563 0.42579,-0.53906 0.85938,-1.02344 1.29688,-1.45312 h -85.60937 c 1.07031,0.85546 1.92968,1.92968 2.57812,3.21875 H 93 c 0.425781,0.64843 0.640625,1.82812 0.640625,3.54687 v 2.89063 h 0.96875 v 3.21875 h -4.5 v 1.60937 h 8.03125 v 3.21875 h 5.796875 v 4.82813 H 91.71875 v 4.82812 H 71.4375 v 6.4375 h 11.265625 v 3.20313 h 9.328125 v 3.21875 h 6.109375 V -181.5 h 17.390625 v 3.21875 h -14.48437 v 6.4375 H 118.75 v 1.60938 H 98.140625 v 4.82812 H 94.9375 v 6.4375 z m 133.21875,88.5 V -73.6875 H 164.4375 v -1.609375 h -12.875 v -2.90625 h -52.125 v 2.90625 h 33.46875 V -73.6875 H 64.359375 v 3.21875 h 72.718745 v 4.828125 H 188.25 V -70.46875 Z M 168.625,-59.203125 h -35.40625 v -4.828125 h -11.57812 v -1.609375 H 77.546875 v 1.609375 h 23.171875 v 4.828125 H 95.890625 V -56 H 85.59375 v 6.4375 H 82.375 v 1.609375 H 97.5 V -43.125 h 9.01563 v 1.609375 H 93.640625 v 4.828125 h -18.34375 v 6.4375 h 88.812495 v -6.4375 h -3.20312 v -4.828125 h -1.29688 V -43.125 h -31.53125 v -4.828125 H 149.3125 V -49.5625 h 0.96875 V -56 H 168.625 Z m 0,0"/>
          </g>
          <g transform="translate(1408.4257,1424.9925)">
            <path d="m 246.8125,-17.375 2.26562,6.4375 h -5.48437 l 0.65625,1.609375 c 0,0.210937 0.0508,0.476563 0.15625,0.796875 0.10156,0.324219 0.15625,0.59375 0.15625,0.8125 h -1.92188 v 0.640625 c 0,2.574219 -0.96875,4.507813 -2.90625,5.796875 h 0.32813 C 238.98828,-0.425781 237.59375,0 235.875,0 h -59.53125 c -1.5,0 -2.73438,-0.160156 -3.70313,-0.484375 -0.96093,-0.320313 -1.97656,-0.585937 -3.04687,-0.796875 -1.71875,-0.863281 -3.01172,-1.882812 -3.875,-3.0625 -0.85547,-1.175781 -1.49609,-2.300781 -1.92188,-3.375 h 1.60938 v -0.328125 l -0.64063,-1.28125 -0.65625,-1.609375 h 5.48438 l -2.26563,-6.4375 h -6.10937 L 160.25,-20.59375 h 13.20312 l -2.25,-6.4375 h -3.875 l -0.95312,-2.25 H 97.1875 l -0.640625,2.25 h -3.875 l -2.25,6.4375 h -3.53125 L 85.59375,-17.375 h -1.921875 l -2.25,6.4375 h 0.3125 l -0.640625,1.609375 -0.328125,1.28125 -0.3125,0.328125 H 78.84375 c -0.429688,1.074219 -1.074219,2.199219 -1.9375,3.375 -0.855469,1.179688 -2.140625,2.199219 -3.859375,3.0625 h 9.65625 C 81.847656,-1.070312 80.882812,-0.804688 79.8125,-0.484375 78.738281,-0.160156 77.445312,0 75.9375,0 H 16.40625 c -1.710938,0 -2.996094,-0.425781 -3.859375,-1.28125 h -9.65625 c -2.148437,-1.507812 -3.21875,-3.441406 -3.21875,-5.796875 V -7.71875 h 1.9375 c 0,-0.644531 0.109375,-1.179688 0.328125,-1.609375 L 2.25,-10.9375 H 1.9375 l 2.25,-6.4375 h 1.921875 l 1.296875,-3.21875 h 3.53125 l 2.25,-6.4375 h 3.546875 l 2.25,-6.4375 H 6.4375 L 7.71875,-36.6875 H 6.75 l 1.609375,-4.828125 h 3.21875 L 12.234375,-43.125 H 5.15625 l 2.25,-6.4375 h 10.9375 l 0.96875,-3.21875 H 9.328125 l 0.640625,-1.609375 h 1.609375 L 13.84375,-60.8125 H 12.875 l 1.609375,-4.828125 h 1.28125 l 2.25,-6.4375 h 4.1875 l 1.609375,-4.828125 0.640625,-1.609375 h 16.09375 L 41.1875,-80.125 h -0.96875 l 1.609375,-4.828125 H 23.8125 l 2.25,-6.4375 h 5.796875 L 32.5,-93 h -3.53125 l 0.640625,-1.609375 H 39.90625 l 2.25,-6.437505 H 29.609375 l 1.28125,-3.21875 h 4.828125 l 2.25,-6.4375 h -2.890625 l 1.609375,-4.82812 h 3.53125 l 2.265625,-6.4375 h -0.96875 l 0.640625,-1.59375 H 34.75 l 1.296875,-3.21875 H 43.125 l 1.609375,-4.82812 h -3.21875 l 0.3125,-1.60938 H 47.625 l 2.25,-6.4375 h -7.078125 l 1.609375,-4.82812 H 40.875 l 0.953125,-3.21875 H 19.625 l 0.96875,-3.21875 h -4.1875 l 2.265625,-6.4375 h -4.1875 l 1.921875,-4.82813 h 12.5625 l 2.25,-6.4375 H 63.390625 L 65,-173.45312 H 49.5625 l 1.28125,-3.21875 H 62.75 l 2.25,-6.4375 H 54.390625 L 56,-187.92187 h 6.75 l 2.25,-6.4375 h -0.96875 l 2.265625,-6.4375 H 57.28125 l 0.328125,-1.60938 H 88.5 l 2.25,-6.4375 h -0.96875 l 0.640625,-1.60937 H 79.15625 l 1.296875,-4.1875 0.96875,-2.25 H 84.625 l 1.9375,-3.21875 h -0.96875 c 1.070312,-1.5 2.570312,-2.73438 4.5,-3.70313 1.9375,-0.96875 4.300781,-1.45312 7.09375,-1.45312 h 69.82812 c 2.78907,0 5.14844,0.48437 7.07813,1.45312 1.92578,0.96875 3.42578,2.20313 4.5,3.70313 h 1.29687 l 1.92188,3.21875 h -3.21875 c 0.42578,0.85546 0.64062,1.60546 0.64062,2.25 l 1.60938,4.1875 h 11.26562 l 0.32813,1.60937 h 0.96875 l 2.25,6.4375 h -30.57813 l 0.64063,1.60938 h 9.01562 l 2.25,6.4375 h 0.96875 l 2.25,6.4375 h -6.75 l 1.60938,4.8125 h 10.60937 l 2.25,6.4375 h -11.90625 l 1.29688,3.21875 H 192.75 l 1.60937,4.82812 H 162.1875 l 2.25,6.4375 h -12.54688 l 1.60938,4.82813 h 3.85937 l 2.25,6.4375 H 147.0625 l 1.28125,3.21875 h 51.17187 l 0.96875,3.21875 h -2.57812 l 1.60937,4.82812 h -6.4375 l 2.25,6.4375 h -7.71875 l 0.3125,1.60938 h 11.59375 l 1.60938,4.82812 h 0.3125 l 1.29687,3.21875 h -10.625 l 0.64063,1.59375 h 10.29687 l 2.26563,6.4375 h 3.53125 l 1.60937,4.82812 h -0.96875 l 2.26563,6.4375 h 5.14062 l 1.28125,3.21875 h -9.32812 l 2.25,6.437505 h 6.4375 L 217.85937,-93 H 216.25 l 0.64062,1.609375 h -5.79687 l 1.9375,6.4375 H 231.375 l 1.60937,4.828125 h 0.96875 l 0.64063,1.609375 h -16.42188 l 0.65625,1.609375 h 0.3125 l 1.60938,4.828125 h -4.1875 l 2.26562,6.4375 h -1.60937 l 1.92187,4.828125 h 0.96875 l 2.25,6.421875 H 220.75 l 0.64062,1.609375 h 9.98438 l 1.28125,3.21875 h -11.26563 l 2.26563,6.4375 h 7.07812 l 0.64063,1.609375 h -3.21875 l 1.92187,4.828125 h 0.65625 l 1.28125,3.21875 h 12.54688 l 2.25,6.4375 h 3.875 l 2.25,6.4375 h -13.20313 l 0.96875,3.21875 z m -134.5,-127.10937 h 3.85938 l -1.60938,4.82812 H 127.75 l -1.60937,-4.82812 h 2.57812 l -0.96875,-3.21875 h -14.48437 z m 10.60938,11.26562 -1.60938,-5.46875 -1.60937,5.46875 z M 103.625,-94.609375 102.96875,-93 h 3.54688 l -0.32813,0.96875 h 36.375 L 142.23437,-93 h 1.60938 l -0.32813,-1.609375 h -6.4375 l -1.92187,-6.437505 h 9.32812 l -0.96875,-3.21875 h -5.46875 l -1.92187,-6.4375 h 0.95312 l -1.28125,-4.82812 h -3.53125 l -1.9375,-6.4375 h -10.29687 l -0.64062,-1.59375 H 130 l -0.95313,-3.21875 h -0.32812 l -1.60937,-4.82812 H 116.8125 l -1.28125,4.82812 h -7.07812 l -0.96875,3.21875 h 7.07812 l -0.32812,1.59375 h 0.96875 l -1.9375,6.4375 h -3.53125 l -1.60938,4.82812 h 2.89063 l -1.92188,6.4375 h -4.82812 l -0.96875,3.21875 h 12.54687 l -1.92187,6.437505 z m 0,0"/>
          </g>
          <g transform="translate(1648.1688,1424.9925)">
            <path d="m 271.92187,-154.14062 v 1.60937 h -7.73437 c 0.21875,1.07422 0.32812,2.14844 0.32812,3.21875 0,1.07422 0,2.14844 0,3.21875 h -56.3125 c 0,2.79297 -1.39843,4.9375 -4.1875,6.4375 -1.28125,0.42969 -2.24609,0.64063 -2.89062,0.64063 h -65.65625 c -0.85547,0 -1.71484,-0.0508 -2.57813,-0.15625 -0.85546,-0.11329 -1.71093,-0.27344 -2.5625,-0.48438 H 77.875 v 1.60938 h 28.3125 c -0.21094,1.07421 -0.3125,2.14843 -0.3125,3.21875 0,1.07421 0,2.14843 0,3.21875 H 94.609375 c -0.21875,0.42968 -0.328125,0.96484 -0.328125,1.60937 0,0.63672 0,1.17188 0,1.60938 H 95.25 v 3.21874 H 90.421875 V -118.75 H 105.875 v 1.60937 H 53.734375 v 3.21875 H 70.15625 v 6.4375 h 33.14063 v 1.60938 H 89.78125 v 1.60937 h -8.6875 v 6.437505 H 105.875 c 0.20703,0.855469 0.3125,1.664063 0.3125,2.421875 0,0.75 0,1.554688 0,2.40625 h 9.01563 v 1.609375 H 73.6875 v 3.21875 H 64.359375 V -86.5625 H 106.1875 v 0.328125 h 64.35937 c 4.08204,0 6.44141,2.039063 7.07813,6.109375 h 47.64062 v 4.828125 H 223 l -0.64063,6.4375 h -3.53125 l -0.32812,3.21875 h 8.35937 c 0,0.636719 -0.10546,1.171875 -0.3125,1.609375 h -1.9375 c -0.21093,0.429688 -0.3125,0.964844 -0.3125,1.609375 h 10.60938 l -0.95313,4.8125 h -9.98437 c 0,0.21875 -0.0547,0.4375 -0.15625,0.65625 -0.10547,0.210937 -0.15625,0.527344 -0.15625,0.953125 h -2.57813 c -0.21875,0.867188 -0.49218,1.671875 -0.8125,2.421875 -0.32421,0.75 -0.58984,1.554687 -0.79687,2.40625 h 3.85937 c 0,0.21875 -0.21484,0.757813 -0.64062,1.609375 H 216.25 c -0.42969,1.074219 -0.91406,2.148438 -1.45313,3.21875 -0.53125,1.074219 -1.12109,2.148438 -1.76562,3.21875 h 6.4375 l -2.90625,4.828125 h 2.90625 L 216.25,-33.46875 h -1.9375 c -0.85547,1.074219 -1.76563,2.148438 -2.73438,3.21875 -0.96093,1.074219 -1.97656,2.148438 -3.04687,3.21875 h -2.57813 c -0.21875,0.21875 -0.4375,0.4375 -0.65625,0.65625 -0.21093,0.210938 -0.52734,0.527344 -0.95312,0.953125 H 190.5 l -1.60938,1.609375 h 64.6875 c -1.29296,1.074219 -2.58593,2.148438 -3.875,3.21875 -1.28125,1.074219 -2.67187,2.148438 -4.17187,3.21875 h -3.54688 c -2.14843,1.5 -4.71875,3.109375 -7.71875,4.828125 H 166.375 c -2.14844,1.28125 -4.40234,2.40625 -6.76563,3.375 -2.35546,0.96875 -4.71484,1.992187 -7.07812,3.0625 H 205.625 c -0.64844,0.210937 -1.34375,0.421875 -2.09375,0.640625 -0.75,0.210938 -1.55469,0.53125 -2.40625,0.96875 H 188.25 c -0.85547,0.210938 -1.71484,0.421875 -2.57813,0.640625 -0.85546,0.210937 -1.71093,0.53125 -2.5625,0.96875 H 159.9375 C 152.20703,-0.742188 144.26953,0.863281 136.125,1.9375 h 5.14062 c -3.42968,0.425781 -6.96875,0.742188 -10.625,0.953125 -3.64843,0.21875 -7.29296,0.328125 -10.93749,0.328125 -4.07422,0 -7.99219,-0.109375 -11.75,-0.328125 -3.75,-0.210937 -7.44922,-0.527344 -11.093755,-0.953125 H 91.71875 C 83.132812,0.863281 75.195312,-0.742188 67.90625,-2.890625 H 91.0625 c -0.855469,-0.4375 -1.65625,-0.757813 -2.40625,-0.96875 -0.75,-0.21875 -1.558594,-0.429687 -2.421875,-0.640625 H 99.4375 l -4.5,-1.609375 H 41.828125 c -2.148437,-1.070313 -4.34375,-2.09375 -6.59375,-3.0625 -2.25,-0.96875 -4.449219,-2.09375 -6.59375,-3.375 h 68.21875 C 95.578125,-13.410156 94.289062,-14.21875 93,-14.96875 c -1.292969,-0.75 -2.476562,-1.550781 -3.546875,-2.40625 H 93 c -2.574219,-1.925781 -5.042969,-4.070312 -7.40625,-6.4375 h -65 c -0.21875,-0.425781 -0.4375,-0.742188 -0.65625,-0.953125 -0.210938,-0.21875 -0.527344,-0.4375 -0.953125,-0.65625 h 14.15625 c -0.210937,-0.425781 -0.476563,-0.742187 -0.796875,-0.953125 -0.324219,-0.21875 -0.59375,-0.4375 -0.8125,-0.65625 h 2.578125 c -1.929687,-2.144531 -3.75,-4.289062 -5.46875,-6.4375 h 1.9375 l -2.90625,-4.828125 H 24.78125 L 21.875,-43.125 h -6.421875 l -2.90625,-6.4375 H 19.3125 l -0.640625,-1.609375 h -4.1875 c -0.21875,-0.851563 -0.4375,-1.65625 -0.65625,-2.40625 C 13.617188,-54.328125 13.300781,-55.132812 12.875,-56 h 2.578125 l -0.65625,-1.609375 h 9.984375 c -0.21875,-0.851563 -0.4375,-1.65625 -0.65625,-2.40625 -0.210938,-0.75 -0.421875,-1.550781 -0.640625,-2.40625 H 18.34375 c -0.21875,-0.4375 -0.328125,-0.972656 -0.328125,-1.609375 h -5.46875 c -0.210937,-0.4375 -0.3125,-0.972656 -0.3125,-1.609375 h 0.3125 c 0,-0.863281 -0.214844,-1.9375 -0.640625,-3.21875 H -6.4375 l -0.96875,-6.4375 H 17.375 c -0.210938,-0.863281 -0.3125,-1.671875 -0.3125,-2.421875 0,-0.75 -0.109375,-1.550781 -0.328125,-2.40625 h 6.109375 c 0,-0.644531 0,-1.289062 0,-1.9375 0,-0.644531 -0.105469,-1.285156 -0.3125,-1.921875 V -86.5625 H -19.3125 v -1.609375 h 9.34375 v -3.21875 h 41.5 V -93 h -9 c 0,-0.851562 -0.05859,-1.65625 -0.171875,-2.40625 -0.105469,-0.757812 -0.15625,-1.566406 -0.15625,-2.421875 h -24.78125 v -6.437505 h 8.6875 V -105.875 H 19.625 v -1.60938 h -33.140625 v -6.4375 h -16.40625 v -3.21875 h 52.125 V -118.75 H 6.75 v -6.42188 h 4.828125 v -3.21874 H 10.625 v -3.21875 h 11.578125 v -6.4375 h -28 v -1.60938 H 56 v -1.60937 c 0.207031,-0.86329 0.3125,-1.67188 0.3125,-2.42188 0,-0.75 0,-1.55078 0,-2.40625 H 39.265625 c 0,-1.07031 0.05078,-2.14453 0.15625,-3.21875 0.101563,-1.07031 0.265625,-2.14453 0.484375,-3.21875 h 10.296875 c 0.207031,-0.42578 0.3125,-0.96094 0.3125,-1.60937 H -16.09375 c 0.21875,-0.42579 0.328125,-0.96094 0.328125,-1.60938 0,-0.64453 0.105469,-1.17969 0.3125,-1.60937 H 43.125 l 1.609375,-6.4375 H 31.53125 L 32.5,-167.01562 H 10.9375 l 0.640625,-1.60938 h 7.09375 c 0.207031,-0.42578 0.414063,-0.96094 0.625,-1.60937 0.21875,-0.64454 0.4375,-1.17969 0.65625,-1.60938 H 16.40625 l 1.296875,-3.21875 H 19.3125 c 0.425781,-0.85156 0.851562,-1.65625 1.28125,-2.40625 0.425781,-0.75 0.75,-1.55469 0.96875,-2.42187 h 0.3125 l 2.90625,-4.82813 H 23.8125 c 0.425781,-0.85156 0.90625,-1.65625 1.4375,-2.40625 0.539062,-0.75 1.132812,-1.55078 1.78125,-2.40625 h -2.578125 c 0.863281,-1.07031 1.722656,-2.19531 2.578125,-3.375 0.851562,-1.1875 1.710938,-2.20703 2.578125,-3.0625 h -2.90625 c 0.21875,-0.4375 0.429687,-0.75781 0.640625,-0.96875 0.21875,-0.21875 0.4375,-0.42969 0.65625,-0.64062 h -3.21875 l 1.609375,-1.60938 H 25.75 c 0.425781,-0.42578 0.742188,-0.75 0.953125,-0.96875 0.21875,-0.21875 0.4375,-0.42969 0.65625,-0.64062 H 21.5625 c 0.425781,-0.42579 0.960938,-0.96094 1.609375,-1.60938 0.644531,-0.64453 1.285156,-1.17969 1.921875,-1.60937 h 7.734375 c 1.070313,-0.86329 2.144531,-1.67188 3.21875,-2.42188 1.070313,-0.75 2.144531,-1.55078 3.21875,-2.40625 H 35.71875 l 2.578125,-1.60937 h -5.46875 c 0.425781,-0.42579 0.851563,-0.75 1.28125,-0.96875 0.425781,-0.21875 0.851563,-0.42969 1.28125,-0.64063 H 52.125 c 1.507812,-0.85156 3.015625,-1.65625 4.515625,-2.40625 1.5,-0.75781 3,-1.56641 4.5,-2.42187 h -0.96875 c 1.289063,-0.64454 2.578125,-1.23438 3.859375,-1.76563 1.289062,-0.53906 2.582031,-1.02344 3.875,-1.45312 h 6.109375 c 0.644531,-0.42579 1.34375,-0.74219 2.09375,-0.95313 0.75,-0.21875 1.550781,-0.4375 2.40625,-0.65625 h -9.65625 c 6.4375,-2.36328 13.300781,-3.97266 20.59375,-4.82812 h 8.6875 c 8.375005,-1.28125 17.171875,-1.92188 26.390625,-1.92188 9.00781,0 17.69531,0.64063 26.0625,1.92188 h -8.35938 c 7.08204,0.85546 14.16016,2.46484 21.23438,4.82812 h 9.65625 c 0.85156,0.21875 1.65625,0.4375 2.40625,0.65625 0.75781,0.21094 1.56641,0.52734 2.42187,0.95313 h -6.10937 c 3.21875,1.07421 5.89844,2.14843 8.04687,3.21875 h 0.95313 c 1.71875,0.85546 3.32812,1.66406 4.82812,2.42187 1.5,0.75 3.00391,1.55469 4.51563,2.40625 h -16.42188 c 0.42579,0.21094 0.85157,0.42188 1.28125,0.64063 0.4375,0.21875 0.86719,0.54296 1.29688,0.96875 h 5.46875 c 0.42578,0.21093 0.85156,0.42187 1.28125,0.64062 0.4375,0.21875 0.75781,0.54297 0.96875,0.96875 h 3.54687 l 6.4375,4.82813 H 186 l 3.85937,3.21875 h 5.79688 l 1.92187,1.60937 h 0.32813 l 1.60937,1.60938 h 3.21875 l 1.60938,1.60937 h 2.89062 c 0.86329,0.85547 1.72266,1.875 2.57813,3.0625 0.85156,1.17969 1.71094,2.30469 2.57812,3.375 h 2.25 c 0.64454,0.85547 1.23438,1.65625 1.76563,2.40625 0.53906,0.75 1.02344,1.55469 1.45312,2.40625 h 0.96875 c 0.42579,0.86719 0.85157,1.67188 1.28125,2.42188 0.42579,0.75 0.85157,1.55468 1.28125,2.40625 H 220.75 c 0.42578,0.86718 0.85156,1.67187 1.28125,2.42187 0.4375,0.75 0.75781,1.55469 0.96875,2.40625 h -1.60938 l 0.96875,3.21875 h 3.54688 l 0.95312,3.21875 h -7.07812 c 0,0.21875 0.0508,0.4375 0.15625,0.65625 0.11328,0.21094 0.17187,0.52734 0.17187,0.95313 h 21.5625 c 0,0.86718 0.21094,1.9375 0.64063,3.21875 h -29.28125 l 0.96875,6.4375 h 18.65625 l 0.32812,3.21875 z m -147.70312,-9.65625 h 22.84375 c -3.4375,-1.28125 -7.30469,-1.92188 -11.59375,-1.92188 -4.28125,0 -8.03125,0.64063 -11.25,1.92188 z m 55.67187,15.45312 c -0.21875,-0.86328 -0.4375,-1.61328 -0.65625,-2.25 -0.21093,-0.64453 -0.52734,-1.28906 -0.95312,-1.9375 H 186 l -0.96875,-1.60937 h -38.60938 c -0.21875,-0.64454 -0.54296,-1.23438 -0.96875,-1.76563 -0.42968,-0.53906 -0.85546,-1.02344 -1.28125,-1.45312 H 71.109375 c -0.210937,0.42968 -0.476563,0.91406 -0.796875,1.45312 -0.324219,0.53125 -0.699219,1.12109 -1.125,1.76563 h 66.60937 l -0.64062,1.60937 h -10.29687 c -0.42969,0.85547 -0.75,1.875 -0.96875,3.0625 -0.21875,1.17969 -0.4336,2.30469 -0.64063,3.375 h 57.59375 z M 141.90625,-80.125 h -41.1875 l 0.96875,4.828125 H 76.90625 c 0.425781,1.28125 0.851562,2.40625 1.28125,3.375 0.4375,0.96875 0.976562,1.992187 1.625,3.0625 h 18.328125 c 0.4375,0.636719 0.867187,1.226563 1.296875,1.765625 0.425781,0.53125 0.85156,1.015625 1.28125,1.453125 h -0.64062 l 1.60937,1.609375 h 5.46875 c 0.42578,0.210938 0.85156,0.476562 1.28125,0.796875 0.4375,0.324219 0.86719,0.59375 1.29688,0.8125 h 5.14062 c 3.65625,1.929687 8.05469,2.890625 13.20312,2.890625 5.14454,0 9.4375,-0.960938 12.875,-2.890625 h -10.625 l 2.57813,-1.609375 h 1.92187 l 1.9375,-1.609375 h -8.375 c 0.4375,-0.4375 0.92188,-0.921875 1.45313,-1.453125 0.53906,-0.539062 0.91406,-1.128906 1.125,-1.765625 h 3.54687 c 1.28125,-1.9375 2.35157,-4.082031 3.21875,-6.4375 h 2.25 l 0.64063,-1.609375 c 0.42578,-1.289062 0.85156,-2.363281 1.28125,-3.21875 z m 0,0"/>
          </g>
          <g transform="translate(1880.8322,1424.9925)">
            <path d="m 239.42187,-17.375 3.85938,6.4375 H 229.125 l 0.3125,0.3125 c 0.21875,0.21875 0.37891,0.652344 0.48437,1.296875 0.10157,0.648437 0.26563,1.183594 0.48438,1.609375 h -0.96875 v 0.640625 c 0,0.855469 -0.10938,1.605469 -0.32813,2.25 -0.21093,0.648437 -0.52734,1.292969 -0.95312,1.9375 h 4.1875 c -0.4375,0.636719 -0.97656,1.171875 -1.60938,1.609375 H 212.0625 C 210.98828,-0.425781 209.59375,0 207.875,0 h -73.35938 c -1.29296,0 -2.47656,-0.160156 -3.54687,-0.484375 -1.07422,-0.320313 -2.03906,-0.585937 -2.89063,-0.796875 h 18.65625 C 146.09766,-1.5 145.13281,-2.035156 143.84375,-2.890625 h -4.1875 c -1.07422,-0.863281 -1.88281,-1.722656 -2.42188,-2.578125 -0.53125,-0.851562 -1.01171,-1.5 -1.4375,-1.9375 l -0.32812,-0.3125 h 0.96875 l -1.60938,-3.21875 h 13.84375 L 145.125,-17.375 h 28.96875 L 173.125,-18.984375 H 148.03125 L 147.70312,-19.625 v 0.640625 H 97.5 V -17.375 h 33.46875 v 6.4375 H 110.375 v 3.21875 H 79.15625 c 0,0.855469 -0.214844,1.714844 -0.640625,2.578125 -0.429687,0.855469 -0.855469,1.605469 -1.28125,2.25 h -2.90625 C 73.472656,-2.035156 72.832031,-1.5 72.40625,-1.28125 H 51.484375 C 50.410156,-0.425781 48.910156,0 46.984375,0 h -61.46875 c -1.925781,0 -3.425781,-0.425781 -4.5,-1.28125 H 1.609375 C 1.179688,-1.5 0.535156,-2.035156 -0.328125,-2.890625 h 2.90625 C 2.148438,-3.535156 1.71875,-4.285156 1.28125,-5.140625 0.851562,-6.003906 0.640625,-6.863281 0.640625,-7.71875 H 31.53125 V -10.9375 H 52.125 V -17.375 H 18.671875 v -1.609375 h 50.1875 V -23.8125 H 7.40625 v -4.828125 h 5.78125 v -6.4375 h 5.15625 v -3.21875 H 17.375 v -6.4375 h -0.640625 v -6.4375 H 14.15625 V -56 h 1.9375 v -3.203125 H 19.625 v -6.4375 h 11.59375 v -4.828125 h -40.875 v -3.21875 h -2.890625 v -1.609375 h 36.6875 v -3.21875 h 3.21875 V -80.125 h -41.84375 v -4.828125 h 5.46875 v -3.21875 h 1.9375 v -6.4375 h 31.53125 v -3.21875 h 8.6875 v -4.828125 H -7.40625 v -6.4375 H 3.546875 v -4.82813 h 14.15625 v -1.60937 h 21.5625 V -118.75 h 11.25 v -4.8125 h 2.265625 v -1.60938 H 46.015625 V -130 h -21.5625 v -1.60937 h -15.125 v -6.4375 h 60.1875 v -3.21875 H -4.5 v -3.21875 h 55.671875 v -4.82813 h -53.75 v -3.21875 H 18.34375 V -155.75 h 19.953125 v -6.4375 h -6.4375 v -4.82812 h 1.921875 v -4.82813 h -9.328125 v -1.60937 h -6.75 v -4.82813 h -1.9375 v -1.60937 h 4.1875 v -3.21875 h 4.1875 v -6.42188 h -35.40625 v -1.60937 h 1.9375 V -192.75 h 13.1875 v -1.60937 h -4.5 v -1.60938 h 24.78125 v -1.60937 h -6.125 v -1.60938 h -0.3125 v -6.4375 H 19.3125 v -3.21875 h 22.203125 v -3.21875 h 2.890625 v -3.21875 h 1.28125 v -1.60937 H 11.265625 c 0.207031,-2.36329 1.28125,-4.50782 3.21875,-6.4375 h 3.53125 c 1.289063,-1.28907 3.113281,-1.9375 5.46875,-1.9375 h 61.46875 c 2.144531,0 3.96875,0.64843 5.46875,1.9375 h -3.53125 c 2.144531,1.71875 3.21875,3.86718 3.21875,6.4375 h 34.421875 v 1.60937 H 123.25 v 3.21875 h -2.89062 v 3.21875 H 98.140625 v 3.21875 h -1.59375 v 6.4375 h 0.3125 v 1.60938 h 6.109375 v 1.60937 H 78.203125 v 1.60938 h 4.5 v 1.60937 h -13.1875 v 1.60938 h -1.9375 v 1.60937 h 30.25 l 0.96875,-1.60937 h 10.296875 l 0.64063,-1.60938 h 18.65624 l 0.96875,-1.60937 h -18.65624 l 0.95312,-1.60938 h 5.48438 l 0.95312,-1.60937 h 1.60938 l 0.96875,-1.60938 h 2.89062 l 0.65625,-1.60937 H 127.75 l 2.57812,-4.82813 h -1.60937 l 1.9375,-3.21875 h 18.32812 l 1.60938,-3.21875 h -14.79688 l 1.60938,-3.21875 H 153.5 l 0.64062,-1.60937 h -21.875 l 0.64063,-1.28125 c 1.07031,-2.14454 2.67969,-3.86329 4.82812,-5.15625 h -2.57812 c 1.92578,-1.28907 4.5,-1.9375 7.71875,-1.9375 H 214 c 1.92578,0 3.53516,0.64843 4.82812,1.9375 h 2.89063 c 1.5,1.5 2.25,3.21875 2.25,5.15625 0,0.63671 -0.10547,1.0625 -0.3125,1.28125 h 22.20312 c 0,0.21875 -0.0586,0.4375 -0.17187,0.65625 -0.10547,0.21093 -0.15625,0.52734 -0.15625,0.95312 h -15.76563 l -0.64062,0.64063 -1.29688,2.57812 h 14.8125 l -1.9375,3.21875 h -18.34375 l -1.92187,3.21875 h 1.60937 l -2.90625,4.82813 h -3.21875 l -0.96875,1.60937 h -2.89062 l -0.96875,1.60938 h -1.60938 l -0.95312,1.60937 h -5.79688 l -0.96875,1.60938 H 220.75 l -0.96875,1.60937 H 201.125 l -0.96875,1.60938 h -10.29688 l -0.96875,1.60937 h 1.9375 l -3.54687,6.42188 h 12.875 l -1.92188,3.21875 h 2.89063 l -0.96875,1.60937 h 0.32812 l -2.90625,4.82813 h 4.51563 l -0.96875,1.60937 h 0.3125 l -2.89063,4.82813 h -6.4375 l -2.89062,4.82812 h 6.75 l -3.85938,6.4375 h -3.53125 l -1.9375,3.21875 h -20.92187 l -1.92188,3.21875 h 53.73438 l -2.89063,4.82813 h -55.67187 l -1.9375,3.21875 h 74.01562 l -1.92187,3.21875 h -60.1875 l -3.85938,6.4375 h 15.125 L 179.23437,-130 h 21.5625 l -2.89062,4.82812 h 6.75 l -0.95313,1.60938 h -2.26562 l -2.89063,4.8125 h -11.26562 l -0.64063,1.29687 1.28125,1.92188 H 166.375 l 0.95312,1.60937 h -14.15625 l 2.90625,4.82813 H 144.8125 l 3.85937,6.4375 h 40.54688 l 2.89062,4.828125 h -8.6875 l 1.9375,3.21875 H 153.8125 l 3.875,6.4375 H 155.75 l 1.9375,3.21875 h -5.48438 l 2.90625,4.828125 h 41.82813 l 0.96875,1.609375 h -3.54688 l 1.9375,3.21875 h -9.01562 L 188.25,-73.6875 h -3.21875 l 1.9375,3.21875 h -23.8125 l 2.89062,4.828125 h 27.67188 l 3.85937,6.4375 H 196.9375 L 198.875,-56 h 2.5625 l 2.90625,4.828125 h 5.79687 l 3.85938,6.4375 h -5.79688 l 3.85938,6.4375 h 0.32812 L 214,-35.078125 h 0.64062 l 3.85938,6.4375 h 1.9375 l 2.89062,4.828125 h 16.09375 l 2.89063,4.828125 h 25.09375 L 268.375,-17.375 Z M 96.546875,-173.45312 h 6.750005 v 1.60937 h 7.40625 l 0.95312,-1.60937 h -4.5 l 2.57813,-4.82813 h -0.32813 l 0.96875,-1.60937 h -2.89062 l 1.60937,-3.21875 H 98.796875 v 3.21875 h -4.1875 v 1.60937 h 1.9375 z m 2.25,17.70312 H 97.1875 v 2.89063 z m 4.171875,80.453125 h 0.96875 l -0.96875,-2.25 z M 66.296875,-73.6875 H 69.1875 v 3.21875 h 25.421875 l -1.9375,-3.21875 h 3.21875 L 94.9375,-75.296875 H 66.296875 Z m 19.9375,49.875 h 43.124995 l -2.57812,-4.828125 h -2.25 L 121,-35.078125 h -0.64062 l -1.60938,-3.21875 h -0.32812 l -3.54688,-6.4375 h 5.79688 l -3.53125,-6.4375 h -5.79688 L 108.45313,-56 H 105.875 l -1.60937,-3.203125 h 0.64062 l -3.85937,-6.4375 h -2.57813 v 6.4375 H 94.9375 V -56 H 93 v 4.828125 h 2.578125 v 6.4375 h 0.640625 v 6.4375 h 0.96875 v 3.21875 h -5.15625 v 6.4375 h -5.796875 z m 0,0"/>
          </g>
          <g transform="translate(2107.7032,1424.9925)">
            <path d="M 221.07812,-56 H 246.5 v 4.828125 h -48.92188 v 6.4375 H 229.125 v 6.4375 h -27.6875 v 6.4375 h 3.54687 v 4.828125 h -2.25 v 3.21875 h -6.76562 v 3.21875 h -0.3125 v 3.21875 h 6.75 v 6.4375 H 211.75 v 2.25 c 0,0.429688 -0.10938,0.75 -0.32813,0.96875 h -57.28125 c -0.21875,0.429688 -0.32812,0.964844 -0.32812,1.609375 h 22.20312 c -0.63671,2.148437 -1.8125,3.757813 -3.53125,4.828125 H 166.375 C 165.30078,-0.425781 163.79687,0 161.85937,0 H -5.796875 C -7.503906,0 -9.113281,-0.425781 -10.625,-1.28125 H -4.5 C -6,-2.351562 -7.179688,-3.960938 -8.046875,-6.109375 h -22.53125 c -0.207031,-0.425781 -0.3125,-0.960937 -0.3125,-1.609375 h 57.59375 V -10.9375 H 17.375 v -6.4375 h -6.75 v -3.21875 h 0.3125 v -3.21875 h 6.765625 v -3.21875 h 2.25 v -4.828125 H 16.40625 v -6.4375 h 27.6875 v -6.4375 H 12.546875 v -6.4375 H 61.46875 V -56 H 36.046875 v -3.203125 H 43.4375 v -3.21875 h 3.21875 v -3.21875 H 10.9375 v -3.21875 H 2.578125 V -73.6875 H 32.5 v -1.609375 H 8.6875 v -3.21875 h 7.078125 v -3.21875 h 5.15625 V -86.5625 h -0.65625 V -93 H 17.0625 v -6.4375 h -4.828125 v -3.21875 h 3.859375 v -6.4375 h -3.546875 v -3.21875 h 5.15625 v -4.82813 h 1.28125 v -4.82812 h 5.796875 v -1.59375 H 19.3125 V -130 h -4.828125 v -4.82812 h 1.28125 v -4.82813 h 0.640625 v -6.4375 h 4.828125 v -6.4375 H 14.15625 v -6.4375 H 15.125 v -6.4375 h 9.015625 v -4.82812 H 19.3125 v -4.82813 h -2.578125 v -1.60937 H 30.25 V -181.5 h 23.8125 v -3.21875 h -9.65625 v -3.20312 H 13.1875 v -1.60938 h 3.546875 v -4.82812 H 17.0625 v -4.82813 h 0.953125 v -6.4375 h -0.3125 v -8.04687 H 17.0625 v -2.89063 c 0,-0.86328 0.101562,-1.50781 0.3125,-1.9375 h -3.21875 c 0.863281,-4.50781 3.65625,-6.76562 8.375,-6.76562 h 165.07812 c 4.9375,0 7.72266,2.25781 8.35938,6.76562 h 3.21875 c 0.21875,0.42969 0.32812,1.07422 0.32812,1.9375 v 2.89063 h 0.64063 v 8.04687 h 0.32812 v 6.4375 h -0.96875 v 4.82813 h -0.32812 v 4.82812 h -3.53125 v 1.60938 h 31.20312 v 3.20312 h 9.65625 V -181.5 h -23.8125 v 4.82813 H 199.1875 v 1.60937 h 2.57812 v 4.82813 h 4.82813 c -0.42969,2.14843 -1.17969,3.75781 -2.25,4.82812 h -9.01563 c -1.5,1.9375 -3.64843,2.90625 -6.4375,2.90625 H 92.359375 v 3.53125 h -0.96875 v 6.4375 h 7.078125 v 6.4375 h -4.828125 v 3.85938 h 89.468745 c 2.35157,0 4.39063,0.85937 6.10938,2.57812 h -0.64063 c 1.07032,1.07422 1.82032,2.68359 2.25,4.82813 h -0.96875 V -130 h 4.82813 v 6.4375 h 5.46875 v 1.59375 h -5.79688 v 4.82812 h -1.28125 v 4.82813 h -5.15625 v 3.21875 h 3.54688 v 6.4375 h -3.85938 v 3.21875 h 4.82813 V -93 h 3.21875 v 1.28125 c 0,2.367188 -0.53906,4.085938 -1.60938,5.15625 h 0.64063 c -1.71875,2.355469 -4.07813,3.53125 -7.07813,3.53125 H 98.140625 v 1.296875 H 93 v 3.21875 h -7.078125 v 3.21875 H 109.73438 V -73.6875 H 79.8125 v 4.828125 h 8.359375 v 3.21875 H 123.89063 V -62.75 H 223 c 1.07031,0 1.92969,0.109375 2.57812,0.328125 h -3.53125 c 2.14454,0.636719 3.75,1.710937 4.8125,3.21875 h -7.39062 c 0.85156,1.28125 1.39062,2.351563 1.60937,3.203125 z m 0,0"/>
          </g>
          <g transform="translate(2319.1276,1424.9925)">
            <path d="m 262.90625,-175.0625 c 0.42578,0.86719 0.85156,1.67188 1.28125,2.42188 0.4375,0.75 0.75781,1.55468 0.96875,2.40625 H 253.25 c 0.42578,0.86718 0.85156,1.88671 1.28125,3.0625 0.4375,1.17968 0.86719,2.30468 1.29687,3.375 H 205.3125 l 1.92187,6.4375 h 26.0625 l 0.96875,4.82812 h -3.53125 c 0.20704,0.42969 0.3125,0.96484 0.3125,1.60938 0,0.64843 0.10938,1.18359 0.32813,1.60937 h -8.6875 l 0.3125,3.21875 h 6.76562 c 0,0.85547 0.0508,1.65625 0.15625,2.40625 0.10157,0.75 0.15625,1.55859 0.15625,2.42188 h 11.90625 c 0.21875,0.85546 0.32813,1.60546 0.32813,2.25 0,0.64843 0,1.39843 0,2.25 v 0.32812 h -30.25 c 0,1.07422 0.0508,2.14844 0.15625,3.21875 0.11328,1.07422 0.17187,2.14844 0.17187,3.21875 h 6.75 c 0,1.07422 0.0508,2.14844 0.15625,3.21875 0.11329,1.07422 0.17188,2.14844 0.17188,3.21875 h 11.57812 v 1.59375 h -4.5 v 6.4375 h 1.28125 v 4.82812 h 18.98438 v 6.4375 h -18.01563 v 3.21875 h -1.9375 c 0,0.42969 0,0.96485 0,1.60938 0,0.648438 -0.10546,1.183594 -0.3125,1.609375 H 220.75 v 6.4375 h 0.64062 c -0.21093,0.648437 -0.3125,1.507813 -0.3125,2.578125 v 0.640625 h 11.90625 c 0,0.855469 -0.0586,1.664063 -0.17187,2.421875 -0.10547,0.75 -0.15625,1.554688 -0.15625,2.40625 h 4.82812 c 0,1.074219 -0.0547,2.148438 -0.15625,3.21875 -0.10546,1.074219 -0.26562,2.148438 -0.48437,3.21875 h -7.07813 c -0.21875,0.429688 -0.32812,0.964844 -0.32812,1.609375 0,0.648437 -0.10547,1.183594 -0.3125,1.609375 H 190.5 c 0,0.855469 -0.21484,1.929688 -0.64063,3.21875 h 33.79688 C 223.21875,-69.1875 223,-68.113281 223,-67.25 h 4.82812 c -0.21093,0.855469 -0.37109,1.65625 -0.48437,2.40625 -0.10547,0.75 -0.37109,1.558594 -0.79688,2.421875 l -0.96875,3.21875 H 216.25 l -0.64063,1.59375 h 15.125 c -0.4375,0.867187 -0.65625,1.402344 -0.65625,1.609375 h -9.64062 l -0.65625,1.609375 h -0.3125 c -0.42969,1.074219 -0.85938,2.148437 -1.29688,3.21875 -0.42968,1.074219 -0.96484,2.148437 -1.60937,3.21875 H 211.75 l -3.54688,6.4375 h 5.46875 l -1.92187,3.21875 h 0.3125 c -0.42969,0.429687 -0.85547,0.964844 -1.28125,1.609375 -0.42969,0.648438 -0.85938,1.183594 -1.29688,1.609375 h -2.25 c -0.64843,0.648437 -1.07421,1.183594 -1.28125,1.609375 -0.64843,0.855469 -1.29296,1.664062 -1.9375,2.421875 -0.64843,0.75 -1.39843,1.554687 -2.25,2.40625 h -0.96875 c -1.07421,1.074219 -2.19921,2.148437 -3.375,3.21875 -1.17968,1.074219 -2.41406,2.148437 -3.70312,3.21875 h 2.90625 l -6.76563,4.828125 h 0.32813 c -1.71875,1.074219 -3.54688,2.148438 -5.48438,3.21875 -1.92968,1.074219 -3.96484,2.148438 -6.10937,3.21875 h -0.3125 c -2.14844,1.074219 -4.82813,2.148438 -8.04688,3.21875 h 0.3125 c -4.29296,1.5 -8.79687,2.789062 -13.51562,3.859375 -4.71875,1.074219 -9.54297,1.933594 -14.46875,2.578125 h 6.75 c -3.42969,0.429688 -6.96875,0.75 -10.625,0.96875 C 135.03906,-0.101562 131.28906,0 127.4375,0 H 33.140625 c -1.929687,0 -3.429687,-0.425781 -4.5,-1.28125 H 21.875 c -2.136719,-1.289062 -3.421875,-3.4375 -3.859375,-6.4375 h -0.3125 v -3.21875 h 0.640625 v -6.4375 h -0.640625 v -4.828125 H 15.125 v -6.4375 h 0.96875 v -4.828125 h -0.328125 v -1.609375 h 2.578125 v -3.21875 h -0.328125 v -3.21875 h -5.78125 v -6.4375 H 17.375 v -6.4375 h 0.328125 V -56 h 9.65625 v -1.609375 h -14.8125 v -1.59375 H 21.875 V -67.25 h -4.5 v -3.21875 h -0.3125 v -3.21875 h 8.359375 v -3.21875 h -37 v -6.4375 H -12.875 v -4.828125 h 4.1875 v -3.21875 H 4.5 v -6.4375 h 8.375 v -3.218755 h 4.828125 v -3.21875 h 5.140625 v -6.4375 H 30.25 v -4.82812 h 7.078125 v -6.4375 h -21.5625 v -1.59375 H 8.6875 V -130 H -5.46875 v -6.4375 h 36.6875 v -4.82812 H 2.890625 v -4.82813 H 18.34375 v -3.21875 h -0.640625 v -3.21875 H 15.125 v -4.82812 H 1.28125 v -6.4375 h 50.203125 v -6.4375 h 11.90625 v -4.82813 H 5.46875 V -181.5 H 43.4375 v -1.60937 H 13.515625 v -1.60938 h 60.8125 v -6.42187 h -7.71875 V -192.75 H -9.96875 v -6.4375 h 9.328125 v -4.82812 H 19.3125 v -1.60938 h 10.609375 v -3.21875 h -5.78125 v -1.60937 H 17.375 v -3.21875 h 0.640625 v -2.89063 c 0,-0.4375 0.05078,-0.8125 0.15625,-1.125 0.113281,-0.32031 0.171875,-0.59375 0.171875,-0.8125 H 19.625 c 1.070312,-4.50781 3.96875,-6.76562 8.6875,-6.76562 H 121 c 16.51953,0 31.53516,2.25781 45.04687,6.76562 h -1.28125 c 3.85157,1.29297 7.82032,2.90234 11.90625,4.82813 h -0.65625 c 1.07032,0.42968 2.19532,0.91406 3.375,1.45312 1.1875,0.53125 2.20704,1.12109 3.0625,1.76563 h 6.76563 l 2.89062,1.60937 h 5.46875 c 1.07032,0.42969 1.98438,0.96484 2.73438,1.60938 0.75,0.64843 1.55469,1.18359 2.42187,1.60937 h -10.625 c 0.42579,0.21094 0.85157,0.42188 1.28125,0.64063 0.4375,0.21875 0.75782,0.54296 0.96875,0.96875 h -19.95312 l 6.125,4.82812 H 170.875 c 2.35156,1.92969 4.5,4.07422 6.4375,6.4375 h 76.57812 c 0.21875,0.21094 0.42969,0.42188 0.64063,0.64063 0.21875,0.21093 0.4375,0.53125 0.65625,0.96875 h 8.04687 c 0.85157,0.85546 1.70704,1.87109 2.5625,3.04687 0.86329,1.17969 1.61719,2.30469 2.26563,3.375 h -60.82813 c 0.21875,0.21875 0.42969,0.4375 0.64063,0.65625 0.21875,0.21094 0.4375,0.52734 0.65625,0.95313 h 29.92187 l 0.96875,1.60937 H 201.4375 c 1.50781,2.14844 2.69141,4.29297 3.54687,6.4375 z m -113.59375,22.53125 c -1.28125,-1.92578 -2.89063,-3.53516 -4.82813,-4.82812 h -26.06249 c -4.71875,-3.42579 -10.51172,-5.14063 -17.375,-5.14063 H 81.734375 v 5.14063 h 13.84375 v 4.82812 h 2.5625 v 3.21875 h 0.65625 v 3.21875 H 83.34375 v 4.82813 h 28.3125 v 4.82812 H 74.984375 V -130 h 14.15625 v 6.4375 h 7.078125 v 1.59375 h 21.5625 v 6.4375 h -7.07812 v 4.82812 h -7.40625 v 6.4375 h -5.156255 v 3.21875 h -4.8125 v 3.218755 h -8.375 v 6.4375 h -13.1875 v 3.21875 h -4.1875 v 4.828125 h 1.28125 v 6.4375 H 105.875 v 3.21875 H 97.5 v 3.21875 h 0.328125 V -67.25 h 4.500005 v 4.5 H 123.25 c 6.21875,0 11.47266,-1.5 15.76562,-4.5 H 133.875 c 0.63281,-0.4375 1.27344,-0.921875 1.92187,-1.453125 0.64454,-0.539063 1.17969,-1.128906 1.60938,-1.765625 H 103.9375 c 0.42578,-0.425781 0.85156,-0.90625 1.28125,-1.4375 0.4375,-0.539062 0.75781,-1.132812 0.96875,-1.78125 h 38.625 c 0.42578,-0.425781 0.74219,-0.90625 0.95312,-1.4375 0.21875,-0.539062 0.4375,-1.132812 0.65625,-1.78125 h 7.39063 c 0.4375,-1.070312 0.75781,-2.144531 0.96875,-3.21875 0.21875,-1.070312 0.42969,-2.144531 0.64062,-3.21875 h -4.82812 c 0.21875,-0.851562 0.32812,-1.65625 0.32812,-2.40625 0,-0.757812 0.10938,-1.566406 0.32813,-2.421875 H 139.34375 V -88.8125 c 0,-0.425781 0.0508,-0.851562 0.15625,-1.28125 0.10156,-0.4375 0.15625,-0.867188 0.15625,-1.296875 h -0.64063 c 0,-1.070313 0,-2.195313 0,-3.375 0,-1.1875 0.10938,-2.207031 0.32813,-3.0625 h 5.78125 v -3.218755 h 1.9375 l 0.32812,-3.21875 h 18.01563 v -6.4375 h -18.98438 v -4.82812 H 145.125 v -6.4375 h 4.51562 v -1.59375 H 137.73437 V -130 h -7.07812 c 0,-1.07031 0,-2.14453 0,-3.21875 0,-1.07031 -0.10938,-2.14453 -0.32813,-3.21875 h 30.25 v -0.32812 c 0,-0.85157 -0.0586,-1.65625 -0.17187,-2.40625 -0.10547,-0.75 -0.15625,-1.44532 -0.15625,-2.09375 h -11.90625 c -0.21094,-0.86329 -0.42188,-1.67188 -0.64063,-2.42188 -0.21093,-0.75 -0.42187,-1.55078 -0.64062,-2.40625 h -6.76563 c -0.21093,-0.64453 -0.42187,-1.23437 -0.64062,-1.76562 -0.21094,-0.53907 -0.42188,-1.02344 -0.64063,-1.45313 h 8.6875 c -0.21093,-0.64453 -0.47656,-1.23437 -0.79687,-1.76562 -0.32422,-0.53907 -0.69922,-1.02344 -1.125,-1.45313 z m 0,0"/>
          </g>
        </g>
      </g>
    </symbol>

  </defs>
</svg>
